<?xml version="1.0" standalone="no"?>
<!DOCTYPE svg PUBLIC "-//W3C//DTD SVG 20010904//EN" "http://www.w3.org/TR/2001/REC-SVG-20010904/DTD/svg10.dtd">
<!-- Created using Krita: https://krita.org -->
<svg xmlns="http://www.w3.org/2000/svg" 
    xmlns:xlink="http://www.w3.org/1999/xlink"
    xmlns:krita="http://krita.org/namespaces/svg/krita"
    xmlns:sodipodi="http://sodipodi.sourceforge.net/DTD/sodipodi-0.dtd"
    width="180pt"
    height="180pt"
    viewBox="0 0 180 180">
<defs/>
<path id="shape0" transform="translate(20.5199980308296, 23.2199977717283)" fill="none" stroke="#e51df3" stroke-width="14.4" stroke-linecap="square" stroke-linejoin="bevel" d="M69.48 0L0 119.34L124.74 126.09L69.48 0" sodipodi:nodetypes="cccc"/><path id="shape1" transform="translate(90, 22.9499977976384)" fill="none" stroke="#e51df3" stroke-width="14.4" stroke-linecap="square" stroke-linejoin="bevel" d="M0 0L34.2 113.13" sodipodi:nodetypes="cc"/><path id="shape2" transform="translate(42.9299958802883, 50.2199951807146)" fill="none" stroke="#e51df3" stroke-width="14.4" stroke-linecap="square" stroke-linejoin="bevel" d="M83.7 87.48L0 75.33L47.07 0L56.97 73.98" sodipodi:nodetypes="cccc"/><path id="shape3" transform="translate(36.4499965021316, 45.6299956211869)" fill="none" stroke="#e51df3" stroke-width="14.4" stroke-linecap="square" stroke-linejoin="bevel" d="M0 89.37L96.66 89.1L9.18 71.55L76.68 67.5L27.27 54.54L69.93 50.49L39.15 37.26L57.78 27.54L48.87 0" sodipodi:nodetypes="ccccccccc"/><path id="shape4" transform="translate(64.2599938333875, 48.5999953361754)" fill="none" stroke="#e51df3" stroke-width="14.4" stroke-linecap="square" stroke-linejoin="bevel" d="M20.79 0L0 71.28" sodipodi:nodetypes="cc"/><path id="shape5" transform="translate(36.4499965021316, 122.309988262708)" fill="none" stroke="#e51df3" stroke-width="14.4" stroke-linecap="square" stroke-linejoin="bevel" d="M0 6.48L82.89 0" sodipodi:nodetypes="cc"/><path id="shape6" transform="translate(102.599990154148, 92.879991086913)" fill="none" stroke="#e51df3" stroke-width="14.4" stroke-linecap="square" stroke-linejoin="bevel" d="M0 0L31.59 47.25" sodipodi:nodetypes="cc"/><path id="shape7" transform="translate(58.8599943515902, 10.7999989635945)" fill="none" stroke="#e51df3" stroke-width="14.4" stroke-linecap="square" stroke-linejoin="bevel" d="M31.14 12.15L31.14 6.75L22.68 2.16L18.36 1.08L9.72 0L4.05 2.97L0 7.29" sodipodi:nodetypes="ccccccc"/><path id="shape8" transform="translate(44.2799957507376, 21.5999979271891)" fill="none" stroke="#e51df3" stroke-width="14.4" stroke-linecap="square" stroke-linejoin="bevel" d="M8.64 0L0 5.67L0.27 13.23L7.02 12.42L10.26 11.07L8.64 0" sodipodi:nodetypes="cccccc"/><path id="shape9" transform="translate(32.3999968907836, 116.909988780911)" fill="none" stroke="#ffe608" stroke-width="14.4" stroke-linecap="square" stroke-linejoin="bevel" d="M0 19.44L79.65 0L105.03 27.27" sodipodi:nodetypes="ccc"/><path id="shape10" transform="translate(90, 36.7199964762214)" fill="none" stroke="#ffe608" stroke-width="14.4" stroke-linecap="square" stroke-linejoin="bevel" d="M20.97 79.11L0 0" sodipodi:nodetypes="cc"/><path id="shape11" transform="translate(52.1099949993436, 65.0699937556571)" fill="none" stroke="#ffe608" stroke-width="14.4" stroke-linecap="square" stroke-linejoin="bevel" d="M17.28 0L28.62 24.93L0 37.8" sodipodi:nodetypes="ccc"/>
</svg>
