<?xml version="1.0" standalone="no"?>
<!DOCTYPE svg PUBLIC "-//W3C//DTD SVG 20010904//EN" "http://www.w3.org/TR/2001/REC-SVG-20010904/DTD/svg10.dtd">
<!-- Created using Krita: https://krita.org -->
<svg xmlns="http://www.w3.org/2000/svg" 
    xmlns:xlink="http://www.w3.org/1999/xlink"
    xmlns:krita="http://krita.org/namespaces/svg/krita"
    xmlns:sodipodi="http://sodipodi.sourceforge.net/DTD/sodipodi-0.dtd"
    width="180pt"
    height="180pt"
    viewBox="0 0 180 180">
<defs/>
<path id="shape0" transform="translate(18.8999981862904, 28.8899972276154)" fill="none" stroke="#ff7308" stroke-width="14.4" stroke-linecap="square" stroke-linejoin="bevel" d="M4.05 119.88L127.17 120.69L117.45 0L41.04 48.6L0 5.67L4.05 119.88" sodipodi:nodetypes="cccccc"/><path id="shape1" transform="translate(25.3799975644471, 44.2799957507376)" fill="none" stroke="#ff7308" stroke-width="14.4" stroke-linecap="square" stroke-linejoin="bevel" d="M0 9.45L41.31 45.72L103.14 0L106.65 94.23L7.56 92.61L4.86 19.44L34.83 57.24L71.82 38.61L95.85 14.85L94.77 83.7L14.04 83.97L11.34 40.77L27.81 67.5L64.62 62.37L82.08 42.66L90.99 39.96L79.65 72.09L21.87 73.71" sodipodi:nodetypes="cccccccccccccccccc"/><path id="shape2" transform="translate(71.0099931856341, 94.2299909573623)" fill="none" stroke="#ff7308" stroke-width="14.4" stroke-linecap="square" stroke-linejoin="bevel" d="M0 5.13L18.99 0L66.42 48.87" sodipodi:nodetypes="ccc"/><path id="shape3" transform="translate(103.679990050508, 71.5499931338138)" fill="none" stroke="#ff7308" stroke-width="14.4" stroke-linecap="square" stroke-linejoin="bevel" d="M0 14.04L8.91 0L12.69 0.54L18.36 3.51" sodipodi:nodetypes="cccc"/><path id="shape4" transform="translate(22.4099978494587, 75.8699927192516)" fill="none" stroke="#ffe608" stroke-width="14.4" stroke-linecap="square" stroke-linejoin="bevel" d="M39.42 0L0 73.98L125.55 75.33L5.4 69.12" sodipodi:nodetypes="cccc"/><path id="shape5" transform="translate(64.7999937815672, 32.9399968389633)" fill="none" stroke="#ffe608" stroke-width="14.4" stroke-linecap="square" stroke-linejoin="bevel" d="M0 42.66L66.15 0" sodipodi:nodetypes="cc"/>
</svg>
