<?xml version="1.0" encoding="UTF-8" standalone="no"?>
<!DOCTYPE svg PUBLIC "-//W3C//DTD SVG 1.1//EN" "http://www.w3.org/Graphics/SVG/1.1/DTD/svg11.dtd">
<svg xmlns="http://www.w3.org/2000/svg" version="1.1" viewBox="0.00 0.00 290.00 446.00">
<g stroke-width="2.00" fill="none" stroke-linecap="butt">
<path stroke="#2d603e" vector-effect="non-scaling-stroke" d="
  M 149.36 53.13
  Q 149.00 51.13 148.74 49.22
  Q 148.47 47.20 147.93 45.35
  C 144.16 32.59 135.96 19.53 123.91 13.54
  C 105.57 4.43 84.22 14.94 68.94 26.03
  Q 68.43 26.40 68.87 26.85
  Q 74.93 33.06 80.41 38.60
  Q 89.69 47.99 101.29 53.96
  Q 106.66 56.73 116.53 58.48"
/>
<path stroke="#94443b" vector-effect="non-scaling-stroke" d="
  M 116.53 58.48
  Q 110.32 59.43 104.27 60.39
  Q 75.32 64.98 48.39 74.66
  C 36.55 78.91 24.50 84.07 14.17 91.15
  Q 11.94 92.68 10.20 94.73"
/>
<path stroke="#988a59" vector-effect="non-scaling-stroke" d="
  M 10.20 94.73
  L 9.98 95.02
  A 0.39 0.38 34.1 0 0 10.09 95.57
  C 35.06 110.67 59.80 130.10 77.60 153.22
  Q 81.62 158.43 84.69 164.10
  C 103.67 199.11 116.98 239.55 112.14 279.85
  Q 109.97 297.89 102.12 315.70
  C 92.91 336.58 80.50 355.75 63.25 370.48
  Q 41.74 388.86 13.43 393.63"
/>
<path stroke="#94443b" vector-effect="non-scaling-stroke" d="
  M 13.43 393.63
  Q 11.58 392.78 11.79 395.16
  A 1.01 0.99 -63.0 0 0 11.92 395.57
  Q 14.76 400.46 19.50 403.84
  C 30.54 411.72 43.76 416.99 56.72 421.14
  Q 90.63 431.99 127.51 434.32
  Q 134.37 434.75 140.02 435.25"
/>
<path stroke="#553520" vector-effect="non-scaling-stroke" d="
  M 140.02 435.25
  Q 148.56 442.24 158.42 436.59
  Q 158.87 436.34 159.02 435.85
  Q 159.24 435.18 158.96 434.86"
/>
<path stroke="#94443b" vector-effect="non-scaling-stroke" d="
  M 158.96 434.86
  C 201.17 433.19 243.35 420.66 273.54 389.63
  Q 273.91 389.25 273.47 388.95
  Q 272.81 388.49 272.41 388.81"
/>
<path stroke="#988a59" vector-effect="non-scaling-stroke" d="
  M 272.41 388.81
  Q 259.93 384.71 250.30 378.18
  C 232.39 366.01 217.79 349.05 203.56 331.83
  C 200.50 328.12 198.47 324.11 196.87 319.64
  Q 193.69 310.72 192.06 302.04
  Q 184.15 260.13 188.29 216.03
  C 189.91 198.77 193.31 180.88 201.69 165.96
  C 217.52 137.79 243.91 116.33 273.05 102.48"
/>
<path stroke="#94443b" vector-effect="non-scaling-stroke" d="
  M 273.05 102.48
  Q 273.46 102.63 273.60 102.40
  Q 273.86 102.00 273.53 101.66
  Q 248.79 76.42 214.99 65.74
  Q 186.16 56.63 155.01 56.47"
/>
<path stroke="#694432" vector-effect="non-scaling-stroke" d="
  M 155.01 56.47
  Q 163.70 32.43 186.32 20.99
  A 1.75 1.74 -17.7 0 0 187.26 19.17
  C 186.65 15.06 184.21 10.38 180.38 8.35
  A 1.32 1.31 -45.9 0 0 179.11 8.37
  C 161.57 18.43 153.01 33.50 149.36 53.13"
/>
<path stroke="#be4d34" vector-effect="non-scaling-stroke" d="
  M 155.01 56.47
  L 153.06 66.20"
/>
<path stroke="#a32a21" vector-effect="non-scaling-stroke" d="
  M 153.06 66.20
  L 152.89 68.35
  Q 152.85 68.90 152.44 69.26
  Q 151.46 70.13 149.82 70.14
  Q 148.24 70.16 148.35 68.58
  Q 148.49 66.55 147.66 66.21"
/>
<path stroke="#be4d34" vector-effect="non-scaling-stroke" d="
  M 147.66 66.21
  Q 147.99 65.63 147.81 65.49"
/>
<path stroke="#576938" vector-effect="non-scaling-stroke" d="
  M 147.81 65.49
  Q 148.84 66.01 148.78 64.16
  A 1.42 1.33 -57.2 0 0 148.72 63.83
  Q 148.35 62.59 148.51 61.00
  Q 148.90 56.97 149.36 53.13"
/>
<path stroke="#816841" vector-effect="non-scaling-stroke" d="
  M 147.81 65.49
  L 145.62 56.35"
/>
<path stroke="#2d603e" vector-effect="non-scaling-stroke" d="
  M 145.62 56.35
  L 144.14 52.64
  A 0.47 0.47 0.0 0 0 143.51 52.38
  L 133.03 56.83"
/>
<path stroke="#816841" vector-effect="non-scaling-stroke" d="
  M 133.03 56.83
  Q 125.07 58.60 116.53 58.48"
/>
<path stroke="#cd292a" vector-effect="non-scaling-stroke" d="
  M 147.66 66.21
  L 140.36 68.08
  A 1.66 1.65 -22.9 0 0 139.36 70.54
  C 141.64 74.32 153.47 73.72 157.57 72.99
  Q 159.95 72.56 162.03 71.28
  A 1.71 1.71 0.0 0 0 161.97 68.34
  Q 158.26 66.23 153.06 66.20"
/>
<path stroke="#ec935b" vector-effect="non-scaling-stroke" d="
  M 273.05 102.48
  Q 259.67 101.78 247.32 106.36
  Q 225.02 114.64 208.26 131.52
  Q 207.93 131.85 207.52 131.63"
/>
<path stroke="#f49d71" vector-effect="non-scaling-stroke" d="
  M 207.52 131.63
  C 172.37 114.22 131.71 115.41 95.32 129.02"
/>
<path stroke="#ec935b" vector-effect="non-scaling-stroke" d="
  M 95.32 129.02
  Q 87.05 119.01 75.49 112.97
  C 55.95 102.74 33.36 97.35 11.50 95.20
  Q 10.80 95.13 10.20 94.73"
/>
<path stroke="#94443b" vector-effect="non-scaling-stroke" d="
  M 145.62 56.35
  L 133.03 56.83"
/>
<path stroke="#f8e48f" vector-effect="non-scaling-stroke" d="
  M 95.32 129.02
  Q 96.43 131.04 97.71 133.25
  Q 110.96 156.08 120.06 180.90
  C 139.08 232.77 146.80 294.71 113.14 341.75
  Q 97.92 363.03 75.52 377.26
  Q 75.01 377.59 74.98 378.35"
/>
<path stroke="#ec935b" vector-effect="non-scaling-stroke" d="
  M 74.98 378.35
  Q 74.77 377.71 74.25 378.02
  Q 57.13 388.11 38.49 391.94
  Q 25.29 394.66 13.43 393.63"
/>
<path stroke="#ec935b" vector-effect="non-scaling-stroke" d="
  M 272.41 388.81
  Q 266.13 389.52 259.49 388.22
  Q 242.17 384.81 227.75 375.34
  Q 227.49 375.17 227.25 375.18
  Q 226.93 375.18 226.74 375.32"
/>
<path stroke="#f8e48f" vector-effect="non-scaling-stroke" d="
  M 226.74 375.32
  Q 226.65 375.14 226.63 374.97
  Q 226.59 374.73 226.40 374.59
  C 182.98 342.08 156.28 296.75 158.88 241.91
  C 160.79 201.39 179.02 161.60 206.95 132.70
  Q 207.27 132.36 207.41 131.92
  Q 207.45 131.79 207.52 131.63"
/>
<path stroke="#f49d71" vector-effect="non-scaling-stroke" d="
  M 226.74 375.32
  Q 195.51 395.16 158.50 398.54
  Q 112.86 402.71 74.98 378.35"
/>
<path stroke="#a93e22" vector-effect="non-scaling-stroke" d="
  M 158.96 434.86
  L 140.02 435.25"
/>
<path stroke="#ad8440" vector-effect="non-scaling-stroke" d="
  M 126.59 269.57
  C 132.42 266.66 134.03 259.03 132.79 253.19
  Q 131.36 246.45 124.99 243.15
  Q 123.96 242.61 123.54 243.69
  C 121.05 250.07 119.03 257.09 119.83 263.82
  C 120.24 267.27 122.37 271.67 126.59 269.57"
/>
<path stroke="#ad8440" vector-effect="non-scaling-stroke" d="
  M 164.70 262.39
  Q 166.31 266.44 170.01 267.69
  C 173.96 269.03 175.25 263.59 175.33 260.95
  Q 175.54 253.72 171.77 244.45
  A 0.45 0.45 0.0 0 0 171.19 244.20
  C 163.92 246.99 161.98 255.53 164.70 262.39"
/>
</g>
<path fill="#3f3b38" d="
  M 149.77 37.85
  Q 157.77 16.29 177.83 4.97
  C 185.12 0.86 196.85 21.41 187.17 24.66
  Q 185.81 25.12 184.55 25.89
  Q 167.92 36.10 160.47 52.44
  Q 160.22 52.99 160.82 53.01
  C 205.72 54.67 249.34 68.96 279.61 103.03
  Q 280.15 103.63 279.40 103.93
  Q 270.74 107.33 262.37 112.16
  C 232.52 129.36 203.65 156.85 195.75 191.54
  Q 192.66 205.10 191.55 218.54
  Q 188.15 259.92 195.21 299.28
  Q 196.98 309.11 200.27 318.40
  C 201.68 322.38 203.50 326.08 206.24 329.38
  C 218.77 344.44 231.45 359.21 246.77 371.20
  Q 261.73 382.92 280.27 387.01
  A 0.25 0.25 0.0 0 1 280.40 387.42
  C 251.14 420.98 206.84 436.13 162.37 438.18
  Q 161.83 438.20 161.43 438.56
  C 154.80 444.33 145.09 443.45 138.38 438.83
  A 1.53 1.51 -26.3 0 0 137.53 438.55
  Q 94.00 436.99 54.28 424.06
  Q 35.68 418.00 21.99 409.70
  C 15.19 405.58 7.86 399.76 7.38 391.22
  A 0.72 0.72 0.0 0 1 8.03 390.46
  C 53.98 386.11 84.22 350.00 100.65 309.84
  C 111.54 283.23 111.73 253.27 104.92 225.51
  Q 96.99 193.17 80.50 164.21
  Q 76.08 156.45 68.77 148.08
  C 50.94 127.65 27.87 110.23 4.21 96.31
  Q 3.89 96.12 4.13 95.82
  C 10.55 87.83 20.52 82.42 29.71 78.34
  Q 62.12 63.97 99.22 57.56
  Q 100.26 57.38 99.32 56.91
  Q 87.94 51.17 78.05 41.33
  C 73.10 36.40 68.48 31.06 62.88 26.80
  Q 62.42 26.45 62.88 26.09
  C 81.20 11.70 108.54 -2.19 130.19 13.13
  C 139.08 19.42 144.58 27.81 149.04 37.87
  Q 149.44 38.76 149.77 37.85
  Z
  M 149.36 53.13
  Q 149.00 51.13 148.74 49.22
  Q 148.47 47.20 147.93 45.35
  C 144.16 32.59 135.96 19.53 123.91 13.54
  C 105.57 4.43 84.22 14.94 68.94 26.03
  Q 68.43 26.40 68.87 26.85
  Q 74.93 33.06 80.41 38.60
  Q 89.69 47.99 101.29 53.96
  Q 106.66 56.73 116.53 58.48
  Q 110.32 59.43 104.27 60.39
  Q 75.32 64.98 48.39 74.66
  C 36.55 78.91 24.50 84.07 14.17 91.15
  Q 11.94 92.68 10.20 94.73
  L 9.98 95.02
  A 0.39 0.38 34.1 0 0 10.09 95.57
  C 35.06 110.67 59.80 130.10 77.60 153.22
  Q 81.62 158.43 84.69 164.10
  C 103.67 199.11 116.98 239.55 112.14 279.85
  Q 109.97 297.89 102.12 315.70
  C 92.91 336.58 80.50 355.75 63.25 370.48
  Q 41.74 388.86 13.43 393.63
  Q 11.58 392.78 11.79 395.16
  A 1.01 0.99 -63.0 0 0 11.92 395.57
  Q 14.76 400.46 19.50 403.84
  C 30.54 411.72 43.76 416.99 56.72 421.14
  Q 90.63 431.99 127.51 434.32
  Q 134.37 434.75 140.02 435.25
  Q 148.56 442.24 158.42 436.59
  Q 158.87 436.34 159.02 435.85
  Q 159.24 435.18 158.96 434.86
  C 201.17 433.19 243.35 420.66 273.54 389.63
  Q 273.91 389.25 273.47 388.95
  Q 272.81 388.49 272.41 388.81
  Q 259.93 384.71 250.30 378.18
  C 232.39 366.01 217.79 349.05 203.56 331.83
  C 200.50 328.12 198.47 324.11 196.87 319.64
  Q 193.69 310.72 192.06 302.04
  Q 184.15 260.13 188.29 216.03
  C 189.91 198.77 193.31 180.88 201.69 165.96
  C 217.52 137.79 243.91 116.33 273.05 102.48
  Q 273.46 102.63 273.60 102.40
  Q 273.86 102.00 273.53 101.66
  Q 248.79 76.42 214.99 65.74
  Q 186.16 56.63 155.01 56.47
  Q 163.70 32.43 186.32 20.99
  A 1.75 1.74 -17.7 0 0 187.26 19.17
  C 186.65 15.06 184.21 10.38 180.38 8.35
  A 1.32 1.31 -45.9 0 0 179.11 8.37
  C 161.57 18.43 153.01 33.50 149.36 53.13
  Z"
/>
<path fill="#934d2b" d="
  M 155.01 56.47
  L 153.06 66.20
  L 152.89 68.35
  Q 152.85 68.90 152.44 69.26
  Q 151.46 70.13 149.82 70.14
  Q 148.24 70.16 148.35 68.58
  Q 148.49 66.55 147.66 66.21
  Q 147.99 65.63 147.81 65.49
  Q 148.84 66.01 148.78 64.16
  A 1.42 1.33 -57.2 0 0 148.72 63.83
  Q 148.35 62.59 148.51 61.00
  Q 148.90 56.97 149.36 53.13
  C 153.01 33.50 161.57 18.43 179.11 8.37
  A 1.32 1.31 -45.9 0 1 180.38 8.35
  C 184.21 10.38 186.65 15.06 187.26 19.17
  A 1.75 1.74 -17.7 0 1 186.32 20.99
  Q 163.70 32.43 155.01 56.47
  Z"
/>
<path fill="#1a8444" d="
  M 149.36 53.13
  Q 148.90 56.97 148.51 61.00
  Q 148.35 62.59 148.72 63.83
  A 1.42 1.33 -57.2 0 1 148.78 64.16
  Q 148.84 66.01 147.81 65.49
  L 145.62 56.35
  L 144.14 52.64
  A 0.47 0.47 0.0 0 0 143.51 52.38
  L 133.03 56.83
  Q 125.07 58.60 116.53 58.48
  Q 106.66 56.73 101.29 53.96
  Q 89.69 47.99 80.41 38.60
  Q 74.93 33.06 68.87 26.85
  Q 68.43 26.40 68.94 26.03
  C 84.22 14.94 105.57 4.43 123.91 13.54
  C 135.96 19.53 144.16 32.59 147.93 45.35
  Q 148.47 47.20 148.74 49.22
  Q 149.00 51.13 149.36 53.13
  Z"
/>
<path fill="#3f3b38" d="
  M 145.62 56.35
  L 133.03 56.83
  L 143.51 52.38
  A 0.47 0.47 0.0 0 1 144.14 52.64
  L 145.62 56.35
  Z"
/>
<path fill="#e84c3d" d="
  M 145.62 56.35
  L 147.81 65.49
  Q 147.99 65.63 147.66 66.21
  L 140.36 68.08
  A 1.66 1.65 -22.9 0 0 139.36 70.54
  C 141.64 74.32 153.47 73.72 157.57 72.99
  Q 159.95 72.56 162.03 71.28
  A 1.71 1.71 0.0 0 0 161.97 68.34
  Q 158.26 66.23 153.06 66.20
  L 155.01 56.47
  Q 186.16 56.63 214.99 65.74
  Q 248.79 76.42 273.53 101.66
  Q 273.86 102.00 273.60 102.40
  Q 273.46 102.63 273.05 102.48
  Q 259.67 101.78 247.32 106.36
  Q 225.02 114.64 208.26 131.52
  Q 207.93 131.85 207.52 131.63
  C 172.37 114.22 131.71 115.41 95.32 129.02
  Q 87.05 119.01 75.49 112.97
  C 55.95 102.74 33.36 97.35 11.50 95.20
  Q 10.80 95.13 10.20 94.73
  Q 11.94 92.68 14.17 91.15
  C 24.50 84.07 36.55 78.91 48.39 74.66
  Q 75.32 64.98 104.27 60.39
  Q 110.32 59.43 116.53 58.48
  Q 125.07 58.60 133.03 56.83
  L 145.62 56.35
  Z"
/>
<path fill="#b20616" d="
  M 147.66 66.21
  Q 148.49 66.55 148.35 68.58
  Q 148.24 70.16 149.82 70.14
  Q 151.46 70.13 152.44 69.26
  Q 152.85 68.90 152.89 68.35
  L 153.06 66.20
  Q 158.26 66.23 161.97 68.34
  A 1.71 1.71 0.0 0 1 162.03 71.28
  Q 159.95 72.56 157.57 72.99
  C 153.47 73.72 141.64 74.32 139.36 70.54
  A 1.66 1.65 -22.9 0 1 140.36 68.08
  L 147.66 66.21
  Z"
/>
<path fill="#f0d979" d="
  M 10.20 94.73
  Q 10.80 95.13 11.50 95.20
  C 33.36 97.35 55.95 102.74 75.49 112.97
  Q 87.05 119.01 95.32 129.02
  Q 96.43 131.04 97.71 133.25
  Q 110.96 156.08 120.06 180.90
  C 139.08 232.77 146.80 294.71 113.14 341.75
  Q 97.92 363.03 75.52 377.26
  Q 75.01 377.59 74.98 378.35
  Q 74.77 377.71 74.25 378.02
  Q 57.13 388.11 38.49 391.94
  Q 25.29 394.66 13.43 393.63
  Q 41.74 388.86 63.25 370.48
  C 80.50 355.75 92.91 336.58 102.12 315.70
  Q 109.97 297.89 112.14 279.85
  C 116.98 239.55 103.67 199.11 84.69 164.10
  Q 81.62 158.43 77.60 153.22
  C 59.80 130.10 35.06 110.67 10.09 95.57
  A 0.39 0.38 34.1 0 1 9.98 95.02
  L 10.20 94.73
  Z
  M 126.59 269.57
  C 132.42 266.66 134.03 259.03 132.79 253.19
  Q 131.36 246.45 124.99 243.15
  Q 123.96 242.61 123.54 243.69
  C 121.05 250.07 119.03 257.09 119.83 263.82
  C 120.24 267.27 122.37 271.67 126.59 269.57
  Z"
/>
<path fill="#f0d979" d="
  M 273.05 102.48
  C 243.91 116.33 217.52 137.79 201.69 165.96
  C 193.31 180.88 189.91 198.77 188.29 216.03
  Q 184.15 260.13 192.06 302.04
  Q 193.69 310.72 196.87 319.64
  C 198.47 324.11 200.50 328.12 203.56 331.83
  C 217.79 349.05 232.39 366.01 250.30 378.18
  Q 259.93 384.71 272.41 388.81
  Q 266.13 389.52 259.49 388.22
  Q 242.17 384.81 227.75 375.34
  Q 227.49 375.17 227.25 375.18
  Q 226.93 375.18 226.74 375.32
  Q 226.65 375.14 226.63 374.97
  Q 226.59 374.73 226.40 374.59
  C 182.98 342.08 156.28 296.75 158.88 241.91
  C 160.79 201.39 179.02 161.60 206.95 132.70
  Q 207.27 132.36 207.41 131.92
  Q 207.45 131.79 207.52 131.63
  Q 207.93 131.85 208.26 131.52
  Q 225.02 114.64 247.32 106.36
  Q 259.67 101.78 273.05 102.48
  Z
  M 164.70 262.39
  Q 166.31 266.44 170.01 267.69
  C 173.96 269.03 175.25 263.59 175.33 260.95
  Q 175.54 253.72 171.77 244.45
  A 0.45 0.45 0.0 0 0 171.19 244.20
  C 163.92 246.99 161.98 255.53 164.70 262.39
  Z"
/>
<path fill="#ffeea4" d="
  M 207.52 131.63
  Q 207.45 131.79 207.41 131.92
  Q 207.27 132.36 206.95 132.70
  C 179.02 161.60 160.79 201.39 158.88 241.91
  C 156.28 296.75 182.98 342.08 226.40 374.59
  Q 226.59 374.73 226.63 374.97
  Q 226.65 375.14 226.74 375.32
  Q 195.51 395.16 158.50 398.54
  Q 112.86 402.71 74.98 378.35
  Q 75.01 377.59 75.52 377.26
  Q 97.92 363.03 113.14 341.75
  C 146.80 294.71 139.08 232.77 120.06 180.90
  Q 110.96 156.08 97.71 133.25
  Q 96.43 131.04 95.32 129.02
  C 131.71 115.41 172.37 114.22 207.52 131.63
  Z"
/>
<path fill="#6a2f07" d="
  M 132.79 253.19
  C 134.03 259.03 132.42 266.66 126.59 269.57
  C 122.37 271.67 120.24 267.27 119.83 263.82
  C 119.03 257.09 121.05 250.07 123.54 243.69
  Q 123.96 242.61 124.99 243.15
  Q 131.36 246.45 132.79 253.19
  Z"
/>
<path fill="#6a2f07" d="
  M 164.70 262.39
  C 161.98 255.53 163.92 246.99 171.19 244.20
  A 0.45 0.45 0.0 0 1 171.77 244.45
  Q 175.54 253.72 175.33 260.95
  C 175.25 263.59 173.96 269.03 170.01 267.69
  Q 166.31 266.44 164.70 262.39
  Z"
/>
<path fill="#e84c3d" d="
  M 226.74 375.32
  Q 226.93 375.18 227.25 375.18
  Q 227.49 375.17 227.75 375.34
  Q 242.17 384.81 259.49 388.22
  Q 266.13 389.52 272.41 388.81
  Q 272.81 388.49 273.47 388.95
  Q 273.91 389.25 273.54 389.63
  C 243.35 420.66 201.17 433.19 158.96 434.86
  L 140.02 435.25
  Q 134.37 434.75 127.51 434.32
  Q 90.63 431.99 56.72 421.14
  C 43.76 416.99 30.54 411.72 19.50 403.84
  Q 14.76 400.46 11.92 395.57
  A 1.01 0.99 -63.0 0 1 11.79 395.16
  Q 11.58 392.78 13.43 393.63
  Q 25.29 394.66 38.49 391.94
  Q 57.13 388.11 74.25 378.02
  Q 74.77 377.71 74.98 378.35
  Q 112.86 402.71 158.50 398.54
  Q 195.51 395.16 226.74 375.32
  Z"
/>
<path fill="#6a2f07" d="
  M 158.96 434.86
  Q 159.24 435.18 159.02 435.85
  Q 158.87 436.34 158.42 436.59
  Q 148.56 442.24 140.02 435.25
  L 158.96 434.86
  Z"
/>
</svg>
