<?xml version="1.0" encoding="UTF-8" standalone="no"?>
<!DOCTYPE svg PUBLIC "-//W3C//DTD SVG 1.1//EN" "http://www.w3.org/Graphics/SVG/1.1/DTD/svg11.dtd">
<svg xmlns="http://www.w3.org/2000/svg" version="1.1" viewBox="0.00 0.00 1201.00 1745.00">
<g stroke-width="2.00" fill="none" stroke-linecap="butt">
<path stroke="#eceadb" vector-effect="non-scaling-stroke" d="
  M 1201.00 119.37
  C 1200.26 117.64 1201.14 116.05 1199.65 114.36
  Q 1197.36 111.77 1194.96 109.29
  Q 1175.90 89.72 1156.28 70.36"
/>
<path stroke="#c5c5c5" vector-effect="non-scaling-stroke" d="
  M 1156.28 70.36
  L 1130.11 43.75
  Q 1129.93 43.57 1129.69 43.51
  Q 1129.30 43.42 1129.32 43.02
  A 0.55 0.54 25.0 0 0 1129.17 42.62
  Q 1119.46 32.48 1112.17 25.80
  Q 1105.83 19.99 1100.66 14.21
  Q 1100.65 14.20 1100.65 14.21
  L 1100.46 14.38
  A 0.25 0.24 -42.6 0 0 1100.44 14.73
  Q 1107.60 22.60 1110.58 26.60
  C 1117.97 36.51 1125.85 46.67 1132.03 56.58
  Q 1147.72 81.78 1157.52 108.56
  Q 1178.58 166.08 1200.48 220.78
  Q 1200.55 220.95 1200.68 220.82
  L 1201.00 220.50"
/>
<path stroke="#c5c5c5" vector-effect="non-scaling-stroke" d="
  M 1201.00 1351.00
  Q 1200.75 1348.24 1200.70 1345.47
  Q 1200.70 1345.32 1200.54 1345.31
  L 1200.54 1345.31
  Q 1200.38 1345.31 1200.37 1345.47
  Q 1200.12 1350.18 1199.76 1354.86
  Q 1197.44 1385.19 1194.69 1414.74
  Q 1193.79 1424.33 1191.93 1433.76
  Q 1184.83 1469.74 1171.07 1503.05
  Q 1170.87 1503.53 1171.24 1503.91
  Q 1193.27 1526.06 1198.77 1556.45
  Q 1200.06 1563.59 1200.09 1576.24
  Q 1200.36 1681.70 1200.10 1720.50
  Q 1200.03 1731.77 1196.13 1745.00"
/>
<path stroke="#80a48a" vector-effect="non-scaling-stroke" d="
  M 205.18 1566.79
  Q 205.20 1567.07 204.92 1567.07
  Q 148.80 1567.05 93.06 1567.16
  Q 85.34 1567.17 85.34 1574.25
  Q 85.34 1640.79 85.37 1715.25
  C 85.37 1719.85 87.95 1722.67 92.36 1722.68
  Q 597.28 1722.91 1101.89 1722.66
  C 1105.59 1722.66 1108.33 1719.58 1108.33 1715.96
  Q 1108.34 1648.74 1108.36 1574.36
  C 1108.36 1570.28 1106.01 1567.19 1101.53 1567.17
  Q 1049.77 1566.99 998.85 1567.12
  Q 997.22 1567.13 998.70 1566.45
  C 1056.11 1540.22 1088.40 1479.19 1101.01 1419.31
  Q 1102.61 1411.71 1103.68 1399.79
  Q 1105.25 1382.50 1106.94 1362.76
  Q 1146.85 898.62 1187.29 430.01
  C 1187.45 428.09 1187.86 426.18 1187.08 424.43
  C 1146.59 333.72 1107.90 240.75 1073.84 147.13
  Q 1070.09 136.83 1066.38 128.63
  Q 1033.13 55.27 956.22 26.11
  Q 917.71 11.50 875.76 10.52
  Q 874.30 10.49 855.76 10.49
  Q 598.86 10.51 335.50 10.50
  Q 323.03 10.50 315.52 11.08
  Q 275.13 14.17 238.60 29.76
  Q 169.58 59.22 138.14 126.74
  Q 134.41 134.76 130.83 144.55
  C 96.29 239.05 57.92 332.15 16.87 423.77
  Q 16.06 425.59 16.24 427.67
  Q 58.06 913.40 99.85 1399.32
  Q 100.82 1410.54 102.54 1418.93
  C 114.87 1478.87 147.29 1539.70 204.99 1566.52
  Q 205.17 1566.60 205.18 1566.79"
/>
<path stroke="#197a30" vector-effect="non-scaling-stroke" d="
  M 142.14 153.55
  C 110.32 240.96 72.67 332.11 34.01 419.15
  Q 33.87 419.48 34.05 419.76
  A 0.50 0.48 -15.0 0 0 34.47 419.99
  L 1169.52 419.99
  A 0.32 0.32 0.0 0 0 1169.81 419.54
  C 1130.69 331.39 1093.94 242.16 1060.71 151.61
  Q 1056.11 139.07 1053.32 133.02
  Q 1032.70 88.26 992.54 60.30
  C 957.63 36.00 912.85 24.15 870.78 24.17
  Q 601.99 24.29 334.23 24.20
  C 301.13 24.18 268.20 31.20 238.98 44.70
  Q 177.46 73.13 149.47 135.08
  Q 146.38 141.91 142.14 153.55"
/>
<path stroke="#055d15" vector-effect="non-scaling-stroke" d="
  M 1172.98 435.46
  Q 1173.10 433.54 1172.00 433.54
  Q 602.41 433.53 32.41 433.56
  A 1.33 1.33 0.0 0 0 31.08 434.92
  L 31.24 442.20"
/>
<path stroke="#003d0d" vector-effect="non-scaling-stroke" d="
  M 31.24 442.20
  L 30.04 434.73
  Q 29.89 433.78 28.94 433.77
  L 24.90 433.72
  Q 24.16 433.71 24.02 434.44
  Q 23.73 435.99 23.84 437.30
  Q 31.17 520.92 46.52 702.27
  Q 48.91 730.45 50.75 750.77
  Q 50.99 753.40 51.23 756.00
  Q 54.58 792.04 58.48 838.48
  Q 67.30 943.54 77.10 1055.38
  C 78.36 1069.75 79.50 1084.29 80.75 1098.89
  Q 83.89 1135.54 87.06 1172.00
  Q 96.48 1280.39 106.43 1396.29
  Q 107.50 1408.75 108.91 1416.51
  Q 110.75 1426.62 113.92 1437.66
  C 123.47 1470.95 138.32 1501.79 161.13 1526.56
  C 171.44 1537.76 185.00 1548.84 199.22 1556.19
  C 207.35 1560.39 215.00 1564.17 223.70 1566.63
  Q 225.49 1567.14 227.22 1567.18
  Q 239.03 1567.45 251.01 1567.25
  A 1.06 1.04 -7.0 0 0 252.03 1565.97
  Q 252.02 1565.90 251.04 1565.51"
/>
<path stroke="#055d15" vector-effect="non-scaling-stroke" d="
  M 251.04 1565.51
  C 255.01 1565.35 259.44 1566.23 262.66 1566.41
  C 267.72 1566.71 272.78 1567.16 277.79 1567.16
  Q 600.77 1567.21 923.75 1567.10
  Q 934.39 1567.09 937.75 1566.63
  Q 945.45 1565.58 953.22 1564.99"
/>
<path stroke="#003d0d" vector-effect="non-scaling-stroke" d="
  M 953.22 1564.99
  L 952.59 1565.91
  Q 952.29 1566.35 952.75 1566.62
  Q 953.98 1567.34 955.40 1567.37
  Q 965.81 1567.53 976.21 1567.67
  Q 978.29 1567.70 980.03 1566.85
  C 983.77 1565.00 987.82 1564.20 991.57 1562.37
  C 993.60 1561.38 995.96 1559.77 998.23 1559.39
  Q 998.40 1559.36 998.37 1559.19
  Q 998.36 1559.14 998.33 1559.09
  Q 998.05 1558.64 998.58 1558.65
  Q 999.22 1558.67 999.81 1558.53
  A 2.03 1.93 -72.0 0 0 1000.68 1558.06
  Q 1002.20 1556.68 1004.25 1556.65
  Q 1004.74 1556.64 1005.07 1556.28
  Q 1005.78 1555.52 1006.68 1554.81
  C 1007.45 1554.21 1008.42 1554.24 1009.02 1553.40
  Q 1009.31 1553.00 1009.77 1552.85
  Q 1010.92 1552.46 1012.12 1551.68
  Q 1015.07 1549.75 1017.57 1548.11
  Q 1020.04 1546.48 1022.72 1544.18
  Q 1027.77 1539.83 1029.98 1538.21
  Q 1032.33 1536.49 1034.04 1534.56
  Q 1035.84 1532.55 1037.82 1530.82
  Q 1045.02 1524.53 1051.59 1515.50
  Q 1052.48 1514.28 1053.03 1512.95
  Q 1053.46 1511.93 1054.29 1511.17
  Q 1055.71 1509.88 1056.72 1508.47
  Q 1060.21 1503.60 1063.97 1498.14
  Q 1064.02 1498.06 1065.31 1495.72
  Q 1066.11 1494.27 1067.50 1493.29
  Q 1067.95 1492.97 1068.01 1492.43
  Q 1068.34 1489.46 1069.89 1486.85
  Q 1072.41 1482.60 1074.67 1477.65
  Q 1081.29 1463.18 1085.55 1450.72
  Q 1087.12 1446.10 1088.76 1441.19
  C 1089.58 1438.72 1089.67 1436.10 1090.63 1433.69
  Q 1091.72 1430.94 1092.24 1428.34
  C 1093.14 1423.87 1094.09 1419.47 1095.25 1415.05
  Q 1095.85 1412.73 1096.04 1410.40
  Q 1098.36 1382.21 1100.69 1357.80
  Q 1101.62 1348.04 1101.99 1338.02
  C 1102.09 1335.16 1102.67 1332.33 1102.91 1329.53
  Q 1107.20 1279.79 1112.05 1226.53
  Q 1112.26 1224.14 1112.36 1221.99
  Q 1112.63 1216.23 1113.20 1210.42
  Q 1113.73 1205.10 1114.21 1199.57
  Q 1117.64 1159.52 1121.38 1115.22
  Q 1122.19 1105.62 1123.20 1095.32
  Q 1125.22 1074.64 1126.53 1053.86
  C 1126.67 1051.55 1127.18 1049.33 1127.35 1047.00
  Q 1127.89 1039.47 1129.97 1016.51
  Q 1132.49 988.74 1134.23 965.96
  Q 1135.01 955.88 1135.94 946.05
  Q 1139.30 910.57 1142.96 865.76
  Q 1143.08 864.29 1143.19 862.87
  Q 1144.55 845.20 1146.39 825.70
  Q 1147.47 814.28 1148.16 805.77
  Q 1151.67 762.61 1155.73 718.50
  Q 1156.66 708.32 1158.21 688.68
  Q 1158.41 686.11 1158.76 683.60
  Q 1159.11 681.05 1159.30 678.49
  Q 1161.54 648.63 1164.96 609.49
  Q 1167.86 576.45 1170.59 545.75
  Q 1171.14 539.63 1171.75 533.77
  Q 1172.27 528.77 1172.72 521.76
  Q 1172.88 519.18 1173.07 516.25
  Q 1173.64 507.66 1174.65 497.89
  Q 1175.61 488.56 1176.29 479.57
  Q 1177.89 458.45 1179.77 439.76
  Q 1180.01 437.31 1179.84 434.28
  A 0.98 0.98 0.0 0 0 1178.86 433.36
  Q 1177.24 433.35 1175.50 433.22
  Q 1173.05 433.04 1172.98 435.46"
/>
<path stroke="#05510d" vector-effect="non-scaling-stroke" d="
  M 953.22 1564.99
  Q 965.22 1563.33 976.87 1560.11
  C 984.76 1557.92 991.81 1554.30 999.18 1551.08
  Q 1000.99 1550.29 1002.77 1549.07
  Q 1009.70 1544.35 1016.25 1539.83
  Q 1023.58 1534.76 1031.48 1526.88
  Q 1041.79 1516.60 1051.29 1503.45
  Q 1063.81 1486.12 1073.26 1463.07
  Q 1083.23 1438.79 1088.28 1412.93
  C 1089.38 1407.32 1089.41 1401.52 1090.21 1395.85
  C 1091.14 1389.28 1091.36 1382.65 1091.94 1376.05
  Q 1098.94 1296.17 1105.66 1216.26
  Q 1106.00 1212.27 1106.34 1208.23
  Q 1114.68 1111.47 1122.95 1015.74
  Q 1139.32 826.29 1151.33 684.23
  Q 1152.60 669.21 1154.07 654.20
  Q 1155.15 643.17 1155.90 634.29
  C 1158.50 603.13 1161.15 571.86 1163.98 540.51
  Q 1166.13 516.57 1167.95 493.23
  Q 1168.21 489.93 1168.46 486.50
  Q 1169.04 478.56 1169.89 470.65
  C 1171.14 459.19 1171.90 447.18 1172.98 435.46"
/>
<path stroke="#05510d" vector-effect="non-scaling-stroke" d="
  M 251.04 1565.51
  Q 244.69 1564.30 238.33 1563.03
  Q 231.25 1561.62 225.89 1559.88
  Q 201.05 1551.84 181.50 1536.13
  C 160.15 1518.98 144.01 1495.52 132.71 1470.05
  Q 120.72 1443.03 115.45 1413.70
  C 114.22 1406.83 113.71 1399.66 113.12 1392.75
  Q 72.22 917.47 31.24 442.20"
/>
<path stroke="#055d15" vector-effect="non-scaling-stroke" d="
  M 98.88 1635.18
  Q 99.17 1636.01 99.00 1636.36"
/>
<path stroke="#197a30" vector-effect="non-scaling-stroke" d="
  M 99.00 1636.36
  L 99.03 1708.24
  A 0.78 0.77 90.0 0 0 99.80 1709.02
  L 1093.81 1709.03
  Q 1094.73 1709.03 1094.73 1708.11
  L 1094.70 1636.50"
/>
<path stroke="#055d15" vector-effect="non-scaling-stroke" d="
  M 1094.70 1636.50
  Q 1094.90 1635.46 1094.77 1634.75"
/>
<path stroke="#003d0d" vector-effect="non-scaling-stroke" d="
  M 1094.77 1634.75
  Q 1095.09 1637.02 1100.18 1635.99
  A 1.84 1.84 0.0 0 0 1101.66 1634.16
  Q 1101.41 1607.06 1101.57 1578.96
  Q 1101.58 1577.16 1101.77 1575.18
  A 1.38 1.38 0.0 0 0 1100.34 1573.66
  C 1089.82 1574.08 1078.66 1573.62 1068.55 1573.65
  Q 1038.13 1573.77 1011.34 1573.92
  Q 1002.09 1573.98 991.69 1573.69
  Q 982.08 1573.43 972.00 1573.27
  Q 963.11 1573.13 952.00 1573.40
  C 925.05 1574.05 898.05 1573.86 871.01 1573.86
  Q 578.72 1573.76 282.61 1573.80
  Q 279.57 1573.80 276.41 1573.67
  Q 273.33 1573.55 270.25 1573.52
  Q 258.16 1573.44 246.52 1573.37
  C 244.79 1573.36 243.23 1572.98 241.48 1573.16
  Q 240.03 1573.31 238.54 1573.33
  Q 200.60 1573.83 163.41 1573.59
  C 162.45 1573.58 161.69 1573.91 160.76 1573.79
  Q 159.77 1573.65 158.74 1573.65
  Q 146.89 1573.65 134.81 1573.52
  Q 128.58 1573.45 122.35 1573.57
  Q 106.32 1573.86 92.89 1573.89
  A 0.81 0.81 0.0 0 0 92.08 1574.70
  L 92.20 1634.32
  A 1.65 1.64 -87.5 0 0 93.70 1635.96
  Q 96.99 1636.24 98.88 1635.18"
/>
<path stroke="#05510d" vector-effect="non-scaling-stroke" d="
  M 1094.77 1634.75
  L 1094.79 1581.31
  A 0.56 0.55 0.0 0 0 1094.23 1580.76
  L 99.70 1580.77
  A 0.79 0.79 0.0 0 0 98.91 1581.56
  L 98.88 1635.18"
/>
<path stroke="#1d8d30" vector-effect="non-scaling-stroke" d="
  M 1094.70 1636.50
  Q 1091.39 1636.05 1086.50 1636.05
  Q 597.50 1636.05 108.50 1636.06
  Q 103.81 1636.06 99.00 1636.36"
/>
<path stroke="#b2b0a1" vector-effect="non-scaling-stroke" d="
  M 1156.28 70.36
  Q 1157.90 74.06 1161.16 77.05
  Q 1161.79 77.62 1162.10 78.35
  Q 1162.42 79.11 1162.96 79.72
  Q 1167.15 84.53 1171.48 90.32
  Q 1173.20 92.61 1174.68 94.82
  Q 1176.30 97.24 1177.86 99.27
  Q 1179.82 101.83 1181.36 104.74
  C 1182.08 106.09 1183.13 107.00 1183.74 108.41
  Q 1184.38 109.87 1185.22 111.19
  Q 1187.04 114.09 1188.59 117.14
  Q 1189.72 119.37 1190.94 121.40
  Q 1192.15 123.40 1193.14 125.42
  Q 1194.37 127.92 1195.71 130.32
  Q 1197.02 132.68 1197.90 135.41
  Q 1198.06 135.90 1198.42 136.25
  Q 1200.15 137.91 1201.00 139.57"
/>
<path stroke="#5fc863" vector-effect="non-scaling-stroke" d="
  M 164.64 368.68
  Q 162.72 373.08 160.83 377.37
  A 0.45 0.45 0.0 0 0 161.24 378.00
  L 1049.02 378.00
  A 0.50 0.50 0.0 0 0 1049.48 377.30
  Q 1014.88 297.84 984.06 217.24
  Q 972.96 188.23 964.05 162.73
  Q 959.47 149.64 955.03 140.36
  Q 929.12 86.21 870.77 65.36
  C 851.48 58.47 831.04 55.17 810.31 55.18
  Q 605.10 55.32 399.53 55.18
  C 379.20 55.16 358.62 58.57 339.75 65.26
  Q 278.73 86.90 252.90 145.68
  Q 250.80 150.47 245.80 164.38
  Q 209.59 265.13 164.64 368.68"
/>
<path stroke="#479847" vector-effect="non-scaling-stroke" d="
  M 259.16 223.94
  Q 233.13 284.10 205.47 340.80
  Q 203.80 344.23 203.72 346.30
  C 203.60 349.73 206.47 353.09 210.14 353.09
  Q 574.13 352.98 1003.57 353.03
  C 1008.60 353.03 1011.26 347.31 1009.18 343.04
  Q 967.01 256.50 934.78 176.75
  Q 928.53 161.30 927.01 158.24
  Q 912.19 128.35 886.50 110.53
  C 858.42 91.07 823.54 82.16 789.14 82.19
  Q 604.46 82.34 424.15 82.20
  C 395.70 82.18 366.61 88.51 341.47 101.84
  Q 305.91 120.70 287.78 155.79
  Q 284.90 161.36 279.80 174.20
  Q 270.06 198.74 259.16 223.94"
/>
<path stroke="#005e24" vector-effect="non-scaling-stroke" d="
  M 234.30 312.05
  Q 230.27 321.53 224.09 334.01
  Q 223.19 335.83 222.36 337.82
  A 1.22 1.22 0.0 0 0 223.49 339.50
  L 990.96 339.50
  A 0.95 0.95 0.0 0 0 991.76 338.03
  Q 990.23 335.67 989.20 333.51
  Q 976.18 306.23 964.66 281.07
  Q 945.51 239.21 923.31 185.50
  Q 921.08 180.10 918.96 174.47
  Q 903.87 134.36 865.25 113.81
  Q 850.87 106.16 834.74 101.97
  Q 819.05 97.89 801.39 96.49
  Q 798.21 96.24 793.61 96.24
  C 787.12 96.24 780.59 96.05 774.15 96.05
  Q 600.04 95.97 423.06 96.02
  Q 411.29 96.02 397.15 98.16
  Q 372.49 101.89 352.44 111.66
  Q 320.46 127.24 302.83 157.00
  Q 298.51 164.29 294.27 175.03
  Q 289.92 186.07 285.65 196.15
  Q 284.11 199.79 282.54 203.31
  Q 280.90 207.00 279.58 210.55
  Q 278.11 214.51 276.25 218.87
  Q 274.48 223.01 272.86 227.18
  Q 271.15 231.59 266.70 241.12
  C 261.75 251.73 257.18 262.79 252.15 273.53
  C 250.01 278.11 248.11 282.86 245.86 287.25
  C 242.91 293.02 240.50 298.88 237.63 304.75
  Q 235.88 308.32 234.30 312.05"
/>
<path stroke="#1d8d30" vector-effect="non-scaling-stroke" d="
  M 975.20 1123.25
  C 996.99 904.93 1016.14 686.53 1034.68 468.21
  Q 1034.75 467.35 1033.88 467.38
  Q 991.86 468.90 949.73 470.36
  Q 939.77 470.70 929.75 470.70
  Q 532.44 470.72 135.15 470.70
  A 0.59 0.59 0.0 0 0 134.56 471.33
  Q 157.73 897.25 180.84 1323.25
  Q 181.08 1327.67 181.37 1329.38
  Q 188.21 1369.29 204.87 1406.18
  C 215.94 1430.70 230.61 1453.26 249.86 1471.87
  Q 285.81 1506.63 336.25 1511.13
  C 342.60 1511.69 349.01 1512.20 355.27 1512.45
  C 423.94 1515.21 496.76 1514.07 564.55 1512.04
  Q 681.02 1508.53 799.99 1502.00
  Q 811.76 1501.36 819.62 1499.92
  Q 851.89 1494.01 879.29 1476.20
  Q 924.06 1447.10 940.26 1395.17
  C 944.75 1380.77 947.04 1367.17 949.55 1349.35
  Q 955.96 1303.84 962.45 1244.75
  Q 969.21 1183.17 975.20 1123.25"
/>
<path stroke="#318a43" vector-effect="non-scaling-stroke" d="
  M 601.97 929.52
  Q 602.32 928.80 602.77 929.46
  L 626.26 964.07
  A 0.97 0.97 0.0 0 1 626.00 965.42
  Q 609.08 976.93 590.75 989.45
  C 587.52 991.65 585.48 994.84 587.37 998.82
  Q 589.04 1002.32 592.51 1002.75
  Q 604.30 1004.20 614.86 1005.73
  Q 628.47 1007.71 634.67 1008.51
  Q 673.81 1013.57 713.49 1018.80
  C 717.62 1019.34 720.90 1017.48 721.88 1013.55
  Q 736.94 953.32 751.57 894.93
  C 753.23 888.29 746.41 883.73 740.72 887.53
  Q 726.78 896.83 713.12 906.14
  A 1.32 1.32 0.0 0 1 711.29 905.80
  Q 696.08 883.73 682.29 863.05
  Q 674.70 851.65 670.19 847.34
  Q 661.59 839.14 649.63 835.47
  Q 643.77 833.67 634.86 832.79
  Q 627.18 832.03 620.31 831.35
  Q 608.16 830.15 587.26 830.38
  Q 569.26 830.57 550.76 834.37
  Q 539.76 836.62 531.71 839.97
  C 520.96 844.45 513.11 852.73 506.20 862.46
  Q 490.22 884.95 477.93 913.54
  C 476.17 917.62 476.83 921.61 481.09 923.75
  Q 527.12 946.92 571.07 969.10
  C 575.88 971.53 580.59 973.04 583.66 966.84
  Q 593.75 946.44 601.97 929.52"
/>
<path stroke="#318a43" vector-effect="non-scaling-stroke" d="
  M 514.13 1063.86
  A 0.64 0.64 0.0 0 1 515.01 1063.63
  Q 533.23 1074.60 552.07 1085.77
  Q 557.84 1089.19 561.43 1085.72
  Q 564.66 1082.60 563.35 1078.47
  Q 544.82 1020.23 526.34 961.72
  Q 524.34 955.39 516.40 956.93
  Q 477.56 964.49 440.81 971.48
  Q 430.09 973.51 421.22 975.44
  Q 410.79 977.71 400.24 979.61
  C 395.35 980.48 391.46 982.75 392.43 988.23
  C 392.93 991.08 395.15 992.61 397.53 994.00
  Q 410.76 1001.78 425.06 1010.25
  A 0.94 0.94 0.0 0 1 425.39 1011.54
  Q 413.20 1032.03 401.17 1052.18
  Q 393.00 1065.87 391.21 1070.04
  C 386.85 1080.15 385.26 1095.31 389.40 1106.76
  Q 391.56 1112.75 393.73 1118.96
  C 402.66 1144.45 414.58 1169.23 430.61 1190.36
  C 439.05 1201.48 448.88 1210.13 462.59 1213.78
  Q 473.75 1216.75 487.02 1218.31
  Q 510.16 1221.03 532.35 1219.88
  C 536.90 1219.65 538.70 1216.75 538.85 1212.62
  Q 538.90 1210.98 538.96 1209.29
  Q 539.53 1190.85 540.17 1173.25
  Q 541.34 1141.00 541.80 1109.96
  C 541.93 1101.33 536.32 1101.68 529.75 1101.55
  Q 511.27 1101.20 493.00 1100.94
  A 0.50 0.50 0.0 0 1 492.58 1100.18
  L 514.13 1063.86"
/>
<path stroke="#318a43" vector-effect="non-scaling-stroke" d="
  M 702.38 1104.56
  Q 702.21 1104.97 701.91 1104.88
  Q 701.75 1104.84 701.58 1104.83
  Q 680.97 1104.68 659.42 1104.82
  A 0.45 0.45 0.0 0 1 658.96 1104.36
  Q 659.06 1083.98 658.91 1060.56
  Q 658.90 1059.14 658.57 1057.66
  C 657.66 1053.65 652.79 1052.08 649.44 1053.56
  Q 647.54 1054.40 644.41 1057.93
  C 619.21 1086.30 593.24 1115.15 567.13 1144.52
  Q 564.21 1147.80 563.76 1149.64
  Q 562.84 1153.42 565.35 1156.23
  Q 604.65 1200.17 646.48 1247.01
  Q 650.18 1251.15 655.08 1249.12
  C 659.15 1247.43 658.95 1243.12 658.97 1239.51
  Q 659.04 1224.22 658.94 1208.76
  A 0.92 0.92 0.0 0 1 659.86 1207.83
  Q 688.68 1207.83 716.65 1207.93
  Q 727.44 1207.96 733.77 1206.30
  Q 745.85 1203.13 754.70 1195.45
  Q 758.01 1192.57 763.79 1185.65
  Q 767.89 1180.74 772.33 1175.34
  Q 792.89 1150.31 806.60 1122.17
  Q 809.99 1115.23 813.14 1106.25
  Q 819.77 1087.38 813.74 1068.94
  Q 804.65 1041.10 784.96 1010.10
  C 782.55 1006.31 778.78 1005.32 774.78 1007.36
  Q 773.00 1008.26 771.23 1009.25
  Q 730.05 1032.23 684.50 1057.56
  C 680.32 1059.89 679.48 1063.94 681.70 1067.88
  Q 693.53 1088.89 702.35 1104.14
  A 0.48 0.46 -49.8 0 1 702.38 1104.56"
/>
<path stroke="#98b59d" vector-effect="non-scaling-stroke" d="
  M 541.01 854.31
  C 569.16 857.55 592.08 882.84 604.69 906.69
  Q 607.82 912.62 611.32 917.70
  Q 625.82 938.79 641.98 962.64
  C 644.75 966.73 643.14 970.60 639.48 973.07
  Q 624.68 983.07 613.28 990.87
  Q 612.48 991.41 613.44 991.54
  L 709.46 1004.34
  A 0.57 0.56 -78.4 0 0 710.08 1003.92
  L 733.62 909.92
  Q 733.90 908.80 732.95 909.45
  Q 723.96 915.53 714.94 921.70
  C 711.54 924.02 707.24 924.37 704.61 920.57
  Q 686.86 894.82 669.51 868.84
  Q 663.02 859.11 658.53 855.46
  Q 650.13 848.62 639.28 847.23
  C 607.79 843.19 576.10 842.16 545.95 849.66
  Q 540.40 851.04 535.64 853.28
  Q 534.71 853.71 535.73 853.80
  Q 538.43 854.02 541.01 854.31"
/>
<path stroke="#84a078" vector-effect="non-scaling-stroke" d="
  M 574.33 954.51
  L 593.24 915.95
  A 1.42 1.37 -41.4 0 0 593.32 914.91
  Q 593.03 913.98 592.56 913.11
  C 579.56 889.67 557.26 864.69 527.98 867.98
  C 522.70 868.57 515.02 873.69 512.16 878.22
  Q 500.92 896.02 493.00 913.70
  A 0.57 0.57 0.0 0 0 493.26 914.44
  L 573.48 954.79
  Q 574.05 955.08 574.33 954.51"
/>
<path stroke="#98b59d" vector-effect="non-scaling-stroke" d="
  M 405.70 1071.70
  C 400.37 1080.66 399.45 1091.77 402.48 1101.42
  C 409.71 1124.50 419.40 1147.61 431.76 1167.80
  Q 440.66 1182.33 451.03 1192.48
  Q 453.13 1194.53 452.05 1191.80
  C 440.61 1163.02 454.27 1130.25 471.74 1107.17
  Q 475.42 1102.30 478.66 1096.81
  Q 492.43 1073.41 506.08 1050.44
  C 508.77 1045.91 513.32 1046.53 517.32 1048.92
  Q 530.98 1057.11 543.69 1064.66
  Q 544.56 1065.18 544.26 1064.21
  L 515.12 971.94
  A 0.73 0.72 -13.9 0 0 514.29 971.45
  L 419.43 989.90
  Q 418.22 990.13 419.29 990.76
  Q 428.80 996.35 438.53 1002.15
  C 443.43 1005.08 442.80 1009.48 440.19 1013.85
  Q 423.32 1042.10 405.70 1071.70"
/>
<path stroke="#84a078" vector-effect="non-scaling-stroke" d="
  M 461.89 1164.84
  C 460.82 1176.37 464.20 1193.97 475.39 1200.26
  C 478.19 1201.83 480.96 1203.56 484.25 1203.99
  Q 504.34 1206.65 525.03 1206.42
  A 0.42 0.42 0.0 0 0 525.45 1206.01
  L 527.96 1116.02
  A 0.71 0.71 0.0 0 0 527.26 1115.29
  L 483.79 1114.57
  A 0.68 0.65 -70.1 0 0 483.24 1114.84
  C 472.58 1129.19 463.56 1146.99 461.89 1164.84"
/>
<path stroke="#84a078" vector-effect="non-scaling-stroke" d="
  M 794.73 1057.50
  C 789.27 1045.46 783.34 1033.85 776.70 1022.96
  A 0.76 0.76 0.0 0 0 775.68 1022.69
  L 697.49 1066.21
  A 0.77 0.77 0.0 0 0 697.19 1067.26
  L 718.40 1104.61
  A 1.50 1.49 -11.7 0 0 719.55 1105.36
  C 746.00 1108.19 780.19 1104.34 794.49 1078.02
  C 797.56 1072.38 797.35 1063.26 794.73 1057.50"
/>
<path stroke="#98b59d" vector-effect="non-scaling-stroke" d="
  M 799.18 1095.47
  C 779.30 1117.58 746.67 1122.15 718.69 1119.12
  Q 712.63 1118.46 706.97 1118.47
  Q 680.14 1118.51 652.26 1118.50
  C 647.35 1118.50 645.19 1115.08 645.22 1110.51
  Q 645.30 1094.48 645.26 1078.88
  Q 645.26 1077.83 644.56 1078.62
  L 580.18 1150.87
  A 0.83 0.83 0.0 0 0 580.18 1151.97
  L 644.74 1224.31
  Q 645.30 1224.93 645.30 1224.09
  Q 645.25 1214.97 645.25 1201.35
  C 645.25 1196.70 648.28 1194.05 652.64 1194.04
  Q 686.42 1193.96 717.96 1194.07
  Q 726.44 1194.10 731.81 1192.56
  Q 741.48 1189.80 748.28 1182.39
  Q 755.63 1174.39 766.82 1159.93
  Q 783.28 1138.64 794.11 1116.19
  C 797.72 1108.70 801.38 1100.05 802.56 1091.97
  Q 802.67 1091.19 802.15 1091.78
  C 801.11 1092.95 800.25 1094.29 799.18 1095.47"
/>
<path stroke="#c5c5c5" vector-effect="non-scaling-stroke" d="
  M 1201.00 1580.12
  L 1201.00 1697.76"
/>
<path stroke="#b2b0a1" vector-effect="non-scaling-stroke" d="
  M 1201.00 1700.22
  Q 1200.49 1702.57 1201.00 1704.90"
/>
<path stroke="#b2b0a1" vector-effect="non-scaling-stroke" d="
  M 1201.00 1707.23
  L 1201.00 1713.89"
/>
<path stroke="#b2b0a1" vector-effect="non-scaling-stroke" d="
  M 1201.00 1715.98
  L 1201.00 1722.64"
/>
</g>
<path fill="#ffffff" d="
  M 0.00 0.00
  L 1201.00 0.00
  L 1201.00 119.37
  C 1200.26 117.64 1201.14 116.05 1199.65 114.36
  Q 1197.36 111.77 1194.96 109.29
  Q 1175.90 89.72 1156.28 70.36
  L 1130.11 43.75
  Q 1129.93 43.57 1129.69 43.51
  Q 1129.30 43.42 1129.32 43.02
  A 0.55 0.54 25.0 0 0 1129.17 42.62
  Q 1119.46 32.48 1112.17 25.80
  Q 1105.83 19.99 1100.66 14.21
  Q 1100.65 14.20 1100.65 14.21
  L 1100.46 14.38
  A 0.25 0.24 -42.6 0 0 1100.44 14.73
  Q 1107.60 22.60 1110.58 26.60
  C 1117.97 36.51 1125.85 46.67 1132.03 56.58
  Q 1147.72 81.78 1157.52 108.56
  Q 1178.58 166.08 1200.48 220.78
  Q 1200.55 220.95 1200.68 220.82
  L 1201.00 220.50
  L 1201.00 1351.00
  Q 1200.75 1348.24 1200.70 1345.47
  Q 1200.70 1345.32 1200.54 1345.31
  L 1200.54 1345.31
  Q 1200.38 1345.31 1200.37 1345.47
  Q 1200.12 1350.18 1199.76 1354.86
  Q 1197.44 1385.19 1194.69 1414.74
  Q 1193.79 1424.33 1191.93 1433.76
  Q 1184.83 1469.74 1171.07 1503.05
  Q 1170.87 1503.53 1171.24 1503.91
  Q 1193.27 1526.06 1198.77 1556.45
  Q 1200.06 1563.59 1200.09 1576.24
  Q 1200.36 1681.70 1200.10 1720.50
  Q 1200.03 1731.77 1196.13 1745.00
  L 0.00 1745.00
  L 0.00 0.00
  Z
  M 205.18 1566.79
  Q 205.20 1567.07 204.92 1567.07
  Q 148.80 1567.05 93.06 1567.16
  Q 85.34 1567.17 85.34 1574.25
  Q 85.34 1640.79 85.37 1715.25
  C 85.37 1719.85 87.95 1722.67 92.36 1722.68
  Q 597.28 1722.91 1101.89 1722.66
  C 1105.59 1722.66 1108.33 1719.58 1108.33 1715.96
  Q 1108.34 1648.74 1108.36 1574.36
  C 1108.36 1570.28 1106.01 1567.19 1101.53 1567.17
  Q 1049.77 1566.99 998.85 1567.12
  Q 997.22 1567.13 998.70 1566.45
  C 1056.11 1540.22 1088.40 1479.19 1101.01 1419.31
  Q 1102.61 1411.71 1103.68 1399.79
  Q 1105.25 1382.50 1106.94 1362.76
  Q 1146.85 898.62 1187.29 430.01
  C 1187.45 428.09 1187.86 426.18 1187.08 424.43
  C 1146.59 333.72 1107.90 240.75 1073.84 147.13
  Q 1070.09 136.83 1066.38 128.63
  Q 1033.13 55.27 956.22 26.11
  Q 917.71 11.50 875.76 10.52
  Q 874.30 10.49 855.76 10.49
  Q 598.86 10.51 335.50 10.50
  Q 323.03 10.50 315.52 11.08
  Q 275.13 14.17 238.60 29.76
  Q 169.58 59.22 138.14 126.74
  Q 134.41 134.76 130.83 144.55
  C 96.29 239.05 57.92 332.15 16.87 423.77
  Q 16.06 425.59 16.24 427.67
  Q 58.06 913.40 99.85 1399.32
  Q 100.82 1410.54 102.54 1418.93
  C 114.87 1478.87 147.29 1539.70 204.99 1566.52
  Q 205.17 1566.60 205.18 1566.79
  Z"
/>
<path fill="#004914" d="
  M 205.18 1566.79
  Q 205.17 1566.60 204.99 1566.52
  C 147.29 1539.70 114.87 1478.87 102.54 1418.93
  Q 100.82 1410.54 99.85 1399.32
  Q 58.06 913.40 16.24 427.67
  Q 16.06 425.59 16.87 423.77
  C 57.92 332.15 96.29 239.05 130.83 144.55
  Q 134.41 134.76 138.14 126.74
  Q 169.58 59.22 238.60 29.76
  Q 275.13 14.17 315.52 11.08
  Q 323.03 10.50 335.50 10.50
  Q 598.86 10.51 855.76 10.49
  Q 874.30 10.49 875.76 10.52
  Q 917.71 11.50 956.22 26.11
  Q 1033.13 55.27 1066.38 128.63
  Q 1070.09 136.83 1073.84 147.13
  C 1107.90 240.75 1146.59 333.72 1187.08 424.43
  C 1187.86 426.18 1187.45 428.09 1187.29 430.01
  Q 1146.85 898.62 1106.94 1362.76
  Q 1105.25 1382.50 1103.68 1399.79
  Q 1102.61 1411.71 1101.01 1419.31
  C 1088.40 1479.19 1056.11 1540.22 998.70 1566.45
  Q 997.22 1567.13 998.85 1567.12
  Q 1049.77 1566.99 1101.53 1567.17
  C 1106.01 1567.19 1108.36 1570.28 1108.36 1574.36
  Q 1108.34 1648.74 1108.33 1715.96
  C 1108.33 1719.58 1105.59 1722.66 1101.89 1722.66
  Q 597.28 1722.91 92.36 1722.68
  C 87.95 1722.67 85.37 1719.85 85.37 1715.25
  Q 85.34 1640.79 85.34 1574.25
  Q 85.34 1567.17 93.06 1567.16
  Q 148.80 1567.05 204.92 1567.07
  Q 205.20 1567.07 205.18 1566.79
  Z
  M 142.14 153.55
  C 110.32 240.96 72.67 332.11 34.01 419.15
  Q 33.87 419.48 34.05 419.76
  A 0.50 0.48 -15.0 0 0 34.47 419.99
  L 1169.52 419.99
  A 0.32 0.32 0.0 0 0 1169.81 419.54
  C 1130.69 331.39 1093.94 242.16 1060.71 151.61
  Q 1056.11 139.07 1053.32 133.02
  Q 1032.70 88.26 992.54 60.30
  C 957.63 36.00 912.85 24.15 870.78 24.17
  Q 601.99 24.29 334.23 24.20
  C 301.13 24.18 268.20 31.20 238.98 44.70
  Q 177.46 73.13 149.47 135.08
  Q 146.38 141.91 142.14 153.55
  Z
  M 1172.98 435.46
  Q 1173.10 433.54 1172.00 433.54
  Q 602.41 433.53 32.41 433.56
  A 1.33 1.33 0.0 0 0 31.08 434.92
  L 31.24 442.20
  L 30.04 434.73
  Q 29.89 433.78 28.94 433.77
  L 24.90 433.72
  Q 24.16 433.71 24.02 434.44
  Q 23.73 435.99 23.84 437.30
  Q 31.17 520.92 46.52 702.27
  Q 48.91 730.45 50.75 750.77
  Q 50.99 753.40 51.23 756.00
  Q 54.58 792.04 58.48 838.48
  Q 67.30 943.54 77.10 1055.38
  C 78.36 1069.75 79.50 1084.29 80.75 1098.89
  Q 83.89 1135.54 87.06 1172.00
  Q 96.48 1280.39 106.43 1396.29
  Q 107.50 1408.75 108.91 1416.51
  Q 110.75 1426.62 113.92 1437.66
  C 123.47 1470.95 138.32 1501.79 161.13 1526.56
  C 171.44 1537.76 185.00 1548.84 199.22 1556.19
  C 207.35 1560.39 215.00 1564.17 223.70 1566.63
  Q 225.49 1567.14 227.22 1567.18
  Q 239.03 1567.45 251.01 1567.25
  A 1.06 1.04 -7.0 0 0 252.03 1565.97
  Q 252.02 1565.90 251.04 1565.51
  C 255.01 1565.35 259.44 1566.23 262.66 1566.41
  C 267.72 1566.71 272.78 1567.16 277.79 1567.16
  Q 600.77 1567.21 923.75 1567.10
  Q 934.39 1567.09 937.75 1566.63
  Q 945.45 1565.58 953.22 1564.99
  L 952.59 1565.91
  Q 952.29 1566.35 952.75 1566.62
  Q 953.98 1567.34 955.40 1567.37
  Q 965.81 1567.53 976.21 1567.67
  Q 978.29 1567.70 980.03 1566.85
  C 983.77 1565.00 987.82 1564.20 991.57 1562.37
  C 993.60 1561.38 995.96 1559.77 998.23 1559.39
  Q 998.40 1559.36 998.37 1559.19
  Q 998.36 1559.14 998.33 1559.09
  Q 998.05 1558.64 998.58 1558.65
  Q 999.22 1558.67 999.81 1558.53
  A 2.03 1.93 -72.0 0 0 1000.68 1558.06
  Q 1002.20 1556.68 1004.25 1556.65
  Q 1004.74 1556.64 1005.07 1556.28
  Q 1005.78 1555.52 1006.68 1554.81
  C 1007.45 1554.21 1008.42 1554.24 1009.02 1553.40
  Q 1009.31 1553.00 1009.77 1552.85
  Q 1010.92 1552.46 1012.12 1551.68
  Q 1015.07 1549.75 1017.57 1548.11
  Q 1020.04 1546.48 1022.72 1544.18
  Q 1027.77 1539.83 1029.98 1538.21
  Q 1032.33 1536.49 1034.04 1534.56
  Q 1035.84 1532.55 1037.82 1530.82
  Q 1045.02 1524.53 1051.59 1515.50
  Q 1052.48 1514.28 1053.03 1512.95
  Q 1053.46 1511.93 1054.29 1511.17
  Q 1055.71 1509.88 1056.72 1508.47
  Q 1060.21 1503.60 1063.97 1498.14
  Q 1064.02 1498.06 1065.31 1495.72
  Q 1066.11 1494.27 1067.50 1493.29
  Q 1067.95 1492.97 1068.01 1492.43
  Q 1068.34 1489.46 1069.89 1486.85
  Q 1072.41 1482.60 1074.67 1477.65
  Q 1081.29 1463.18 1085.55 1450.72
  Q 1087.12 1446.10 1088.76 1441.19
  C 1089.58 1438.72 1089.67 1436.10 1090.63 1433.69
  Q 1091.72 1430.94 1092.24 1428.34
  C 1093.14 1423.87 1094.09 1419.47 1095.25 1415.05
  Q 1095.85 1412.73 1096.04 1410.40
  Q 1098.36 1382.21 1100.69 1357.80
  Q 1101.62 1348.04 1101.99 1338.02
  C 1102.09 1335.16 1102.67 1332.33 1102.91 1329.53
  Q 1107.20 1279.79 1112.05 1226.53
  Q 1112.26 1224.14 1112.36 1221.99
  Q 1112.63 1216.23 1113.20 1210.42
  Q 1113.73 1205.10 1114.21 1199.57
  Q 1117.64 1159.52 1121.38 1115.22
  Q 1122.19 1105.62 1123.20 1095.32
  Q 1125.22 1074.64 1126.53 1053.86
  C 1126.67 1051.55 1127.18 1049.33 1127.35 1047.00
  Q 1127.89 1039.47 1129.97 1016.51
  Q 1132.49 988.74 1134.23 965.96
  Q 1135.01 955.88 1135.94 946.05
  Q 1139.30 910.57 1142.96 865.76
  Q 1143.08 864.29 1143.19 862.87
  Q 1144.55 845.20 1146.39 825.70
  Q 1147.47 814.28 1148.16 805.77
  Q 1151.67 762.61 1155.73 718.50
  Q 1156.66 708.32 1158.21 688.68
  Q 1158.41 686.11 1158.76 683.60
  Q 1159.11 681.05 1159.30 678.49
  Q 1161.54 648.63 1164.96 609.49
  Q 1167.86 576.45 1170.59 545.75
  Q 1171.14 539.63 1171.75 533.77
  Q 1172.27 528.77 1172.72 521.76
  Q 1172.88 519.18 1173.07 516.25
  Q 1173.64 507.66 1174.65 497.89
  Q 1175.61 488.56 1176.29 479.57
  Q 1177.89 458.45 1179.77 439.76
  Q 1180.01 437.31 1179.84 434.28
  A 0.98 0.98 0.0 0 0 1178.86 433.36
  Q 1177.24 433.35 1175.50 433.22
  Q 1173.05 433.04 1172.98 435.46
  Z
  M 98.88 1635.18
  Q 99.17 1636.01 99.00 1636.36
  L 99.03 1708.24
  A 0.78 0.77 90.0 0 0 99.80 1709.02
  L 1093.81 1709.03
  Q 1094.73 1709.03 1094.73 1708.11
  L 1094.70 1636.50
  Q 1094.90 1635.46 1094.77 1634.75
  Q 1095.09 1637.02 1100.18 1635.99
  A 1.84 1.84 0.0 0 0 1101.66 1634.16
  Q 1101.41 1607.06 1101.57 1578.96
  Q 1101.58 1577.16 1101.77 1575.18
  A 1.38 1.38 0.0 0 0 1100.34 1573.66
  C 1089.82 1574.08 1078.66 1573.62 1068.55 1573.65
  Q 1038.13 1573.77 1011.34 1573.92
  Q 1002.09 1573.98 991.69 1573.69
  Q 982.08 1573.43 972.00 1573.27
  Q 963.11 1573.13 952.00 1573.40
  C 925.05 1574.05 898.05 1573.86 871.01 1573.86
  Q 578.72 1573.76 282.61 1573.80
  Q 279.57 1573.80 276.41 1573.67
  Q 273.33 1573.55 270.25 1573.52
  Q 258.16 1573.44 246.52 1573.37
  C 244.79 1573.36 243.23 1572.98 241.48 1573.16
  Q 240.03 1573.31 238.54 1573.33
  Q 200.60 1573.83 163.41 1573.59
  C 162.45 1573.58 161.69 1573.91 160.76 1573.79
  Q 159.77 1573.65 158.74 1573.65
  Q 146.89 1573.65 134.81 1573.52
  Q 128.58 1573.45 122.35 1573.57
  Q 106.32 1573.86 92.89 1573.89
  A 0.81 0.81 0.0 0 0 92.08 1574.70
  L 92.20 1634.32
  A 1.65 1.64 -87.5 0 0 93.70 1635.96
  Q 96.99 1636.24 98.88 1635.18
  Z"
/>
<path fill="#8b8b8b" d="
  M 1156.28 70.36
  Q 1157.90 74.06 1161.16 77.05
  Q 1161.79 77.62 1162.10 78.35
  Q 1162.42 79.11 1162.96 79.72
  Q 1167.15 84.53 1171.48 90.32
  Q 1173.20 92.61 1174.68 94.82
  Q 1176.30 97.24 1177.86 99.27
  Q 1179.82 101.83 1181.36 104.74
  C 1182.08 106.09 1183.13 107.00 1183.74 108.41
  Q 1184.38 109.87 1185.22 111.19
  Q 1187.04 114.09 1188.59 117.14
  Q 1189.72 119.37 1190.94 121.40
  Q 1192.15 123.40 1193.14 125.42
  Q 1194.37 127.92 1195.71 130.32
  Q 1197.02 132.68 1197.90 135.41
  Q 1198.06 135.90 1198.42 136.25
  Q 1200.15 137.91 1201.00 139.57
  L 1201.00 220.50
  L 1200.68 220.82
  Q 1200.55 220.95 1200.48 220.78
  Q 1178.58 166.08 1157.52 108.56
  Q 1147.72 81.78 1132.03 56.58
  C 1125.85 46.67 1117.97 36.51 1110.58 26.60
  Q 1107.60 22.60 1100.44 14.73
  A 0.25 0.24 -42.6 0 1 1100.46 14.38
  L 1100.65 14.21
  Q 1100.65 14.20 1100.66 14.21
  Q 1105.83 19.99 1112.17 25.80
  Q 1119.46 32.48 1129.17 42.62
  A 0.55 0.54 25.0 0 1 1129.32 43.02
  Q 1129.30 43.42 1129.69 43.51
  Q 1129.93 43.57 1130.11 43.75
  L 1156.28 70.36
  Z"
/>
<path fill="#31aa4b" d="
  M 34.01 419.15
  C 72.67 332.11 110.32 240.96 142.14 153.55
  Q 146.38 141.91 149.47 135.08
  Q 177.46 73.13 238.98 44.70
  C 268.20 31.20 301.13 24.18 334.23 24.20
  Q 601.99 24.29 870.78 24.17
  C 912.85 24.15 957.63 36.00 992.54 60.30
  Q 1032.70 88.26 1053.32 133.02
  Q 1056.11 139.07 1060.71 151.61
  C 1093.94 242.16 1130.69 331.39 1169.81 419.54
  A 0.32 0.32 0.0 0 1 1169.52 419.99
  L 34.47 419.99
  A 0.50 0.48 -15.0 0 1 34.05 419.76
  Q 33.87 419.48 34.01 419.15
  Z
  M 164.64 368.68
  Q 162.72 373.08 160.83 377.37
  A 0.45 0.45 0.0 0 0 161.24 378.00
  L 1049.02 378.00
  A 0.50 0.50 0.0 0 0 1049.48 377.30
  Q 1014.88 297.84 984.06 217.24
  Q 972.96 188.23 964.05 162.73
  Q 959.47 149.64 955.03 140.36
  Q 929.12 86.21 870.77 65.36
  C 851.48 58.47 831.04 55.17 810.31 55.18
  Q 605.10 55.32 399.53 55.18
  C 379.20 55.16 358.62 58.57 339.75 65.26
  Q 278.73 86.90 252.90 145.68
  Q 250.80 150.47 245.80 164.38
  Q 209.59 265.13 164.64 368.68
  Z"
/>
<path fill="#8de67a" d="
  M 164.64 368.68
  Q 209.59 265.13 245.80 164.38
  Q 250.80 150.47 252.90 145.68
  Q 278.73 86.90 339.75 65.26
  C 358.62 58.57 379.20 55.16 399.53 55.18
  Q 605.10 55.32 810.31 55.18
  C 831.04 55.17 851.48 58.47 870.77 65.36
  Q 929.12 86.21 955.03 140.36
  Q 959.47 149.64 964.05 162.73
  Q 972.96 188.23 984.06 217.24
  Q 1014.88 297.84 1049.48 377.30
  A 0.50 0.50 0.0 0 1 1049.02 378.00
  L 161.24 378.00
  A 0.45 0.45 0.0 0 1 160.83 377.37
  Q 162.72 373.08 164.64 368.68
  Z
  M 259.16 223.94
  Q 233.13 284.10 205.47 340.80
  Q 203.80 344.23 203.72 346.30
  C 203.60 349.73 206.47 353.09 210.14 353.09
  Q 574.13 352.98 1003.57 353.03
  C 1008.60 353.03 1011.26 347.31 1009.18 343.04
  Q 967.01 256.50 934.78 176.75
  Q 928.53 161.30 927.01 158.24
  Q 912.19 128.35 886.50 110.53
  C 858.42 91.07 823.54 82.16 789.14 82.19
  Q 604.46 82.34 424.15 82.20
  C 395.70 82.18 366.61 88.51 341.47 101.84
  Q 305.91 120.70 287.78 155.79
  Q 284.90 161.36 279.80 174.20
  Q 270.06 198.74 259.16 223.94
  Z"
/>
<path fill="#d8d5b6" d="
  M 1156.28 70.36
  Q 1175.90 89.72 1194.96 109.29
  Q 1197.36 111.77 1199.65 114.36
  C 1201.14 116.05 1200.26 117.64 1201.00 119.37
  L 1201.00 139.57
  Q 1200.15 137.91 1198.42 136.25
  Q 1198.06 135.90 1197.90 135.41
  Q 1197.02 132.68 1195.71 130.32
  Q 1194.37 127.92 1193.14 125.42
  Q 1192.15 123.40 1190.94 121.40
  Q 1189.72 119.37 1188.59 117.14
  Q 1187.04 114.09 1185.22 111.19
  Q 1184.38 109.87 1183.74 108.41
  C 1183.13 107.00 1182.08 106.09 1181.36 104.74
  Q 1179.82 101.83 1177.86 99.27
  Q 1176.30 97.24 1174.68 94.82
  Q 1173.20 92.61 1171.48 90.32
  Q 1167.15 84.53 1162.96 79.72
  Q 1162.42 79.11 1162.10 78.35
  Q 1161.79 77.62 1161.16 77.05
  Q 1157.90 74.06 1156.28 70.36
  Z"
/>
<path fill="#004914" d="
  M 259.16 223.94
  Q 270.06 198.74 279.80 174.20
  Q 284.90 161.36 287.78 155.79
  Q 305.91 120.70 341.47 101.84
  C 366.61 88.51 395.70 82.18 424.15 82.20
  Q 604.46 82.34 789.14 82.19
  C 823.54 82.16 858.42 91.07 886.50 110.53
  Q 912.19 128.35 927.01 158.24
  Q 928.53 161.30 934.78 176.75
  Q 967.01 256.50 1009.18 343.04
  C 1011.26 347.31 1008.60 353.03 1003.57 353.03
  Q 574.13 352.98 210.14 353.09
  C 206.47 353.09 203.60 349.73 203.72 346.30
  Q 203.80 344.23 205.47 340.80
  Q 233.13 284.10 259.16 223.94
  Z
  M 234.30 312.05
  Q 230.27 321.53 224.09 334.01
  Q 223.19 335.83 222.36 337.82
  A 1.22 1.22 0.0 0 0 223.49 339.50
  L 990.96 339.50
  A 0.95 0.95 0.0 0 0 991.76 338.03
  Q 990.23 335.67 989.20 333.51
  Q 976.18 306.23 964.66 281.07
  Q 945.51 239.21 923.31 185.50
  Q 921.08 180.10 918.96 174.47
  Q 903.87 134.36 865.25 113.81
  Q 850.87 106.16 834.74 101.97
  Q 819.05 97.89 801.39 96.49
  Q 798.21 96.24 793.61 96.24
  C 787.12 96.24 780.59 96.05 774.15 96.05
  Q 600.04 95.97 423.06 96.02
  Q 411.29 96.02 397.15 98.16
  Q 372.49 101.89 352.44 111.66
  Q 320.46 127.24 302.83 157.00
  Q 298.51 164.29 294.27 175.03
  Q 289.92 186.07 285.65 196.15
  Q 284.11 199.79 282.54 203.31
  Q 280.90 207.00 279.58 210.55
  Q 278.11 214.51 276.25 218.87
  Q 274.48 223.01 272.86 227.18
  Q 271.15 231.59 266.70 241.12
  C 261.75 251.73 257.18 262.79 252.15 273.53
  C 250.01 278.11 248.11 282.86 245.86 287.25
  C 242.91 293.02 240.50 298.88 237.63 304.75
  Q 235.88 308.32 234.30 312.05
  Z"
/>
<path fill="#007234" d="
  M 237.63 304.75
  C 240.50 298.88 242.91 293.02 245.86 287.25
  C 248.11 282.86 250.01 278.11 252.15 273.53
  C 257.18 262.79 261.75 251.73 266.70 241.12
  Q 271.15 231.59 272.86 227.18
  Q 274.48 223.01 276.25 218.87
  Q 278.11 214.51 279.58 210.55
  Q 280.90 207.00 282.54 203.31
  Q 284.11 199.79 285.65 196.15
  Q 289.92 186.07 294.27 175.03
  Q 298.51 164.29 302.83 157.00
  Q 320.46 127.24 352.44 111.66
  Q 372.49 101.89 397.15 98.16
  Q 411.29 96.02 423.06 96.02
  Q 600.04 95.97 774.15 96.05
  C 780.59 96.05 787.12 96.24 793.61 96.24
  Q 798.21 96.24 801.39 96.49
  Q 819.05 97.89 834.74 101.97
  Q 850.87 106.16 865.25 113.81
  Q 903.87 134.36 918.96 174.47
  Q 921.08 180.10 923.31 185.50
  Q 945.51 239.21 964.66 281.07
  Q 976.18 306.23 989.20 333.51
  Q 990.23 335.67 991.76 338.03
  A 0.95 0.95 0.0 0 1 990.96 339.50
  L 223.49 339.50
  A 1.22 1.22 0.0 0 1 222.36 337.82
  Q 223.19 335.83 224.09 334.01
  Q 230.27 321.53 234.30 312.05
  Q 235.88 308.32 237.63 304.75
  Z"
/>
<path fill="#003105" d="
  M 953.22 1564.99
  Q 965.22 1563.33 976.87 1560.11
  C 984.76 1557.92 991.81 1554.30 999.18 1551.08
  Q 1000.99 1550.29 1002.77 1549.07
  Q 1009.70 1544.35 1016.25 1539.83
  Q 1023.58 1534.76 1031.48 1526.88
  Q 1041.79 1516.60 1051.29 1503.45
  Q 1063.81 1486.12 1073.26 1463.07
  Q 1083.23 1438.79 1088.28 1412.93
  C 1089.38 1407.32 1089.41 1401.52 1090.21 1395.85
  C 1091.14 1389.28 1091.36 1382.65 1091.94 1376.05
  Q 1098.94 1296.17 1105.66 1216.26
  Q 1106.00 1212.27 1106.34 1208.23
  Q 1114.68 1111.47 1122.95 1015.74
  Q 1139.32 826.29 1151.33 684.23
  Q 1152.60 669.21 1154.07 654.20
  Q 1155.15 643.17 1155.90 634.29
  C 1158.50 603.13 1161.15 571.86 1163.98 540.51
  Q 1166.13 516.57 1167.95 493.23
  Q 1168.21 489.93 1168.46 486.50
  Q 1169.04 478.56 1169.89 470.65
  C 1171.14 459.19 1171.90 447.18 1172.98 435.46
  Q 1173.05 433.04 1175.50 433.22
  Q 1177.24 433.35 1178.86 433.36
  A 0.98 0.98 0.0 0 1 1179.84 434.28
  Q 1180.01 437.31 1179.77 439.76
  Q 1177.89 458.45 1176.29 479.57
  Q 1175.61 488.56 1174.65 497.89
  Q 1173.64 507.66 1173.07 516.25
  Q 1172.88 519.18 1172.72 521.76
  Q 1172.27 528.77 1171.75 533.77
  Q 1171.14 539.63 1170.59 545.75
  Q 1167.86 576.45 1164.96 609.49
  Q 1161.54 648.63 1159.30 678.49
  Q 1159.11 681.05 1158.76 683.60
  Q 1158.41 686.11 1158.21 688.68
  Q 1156.66 708.32 1155.73 718.50
  Q 1151.67 762.61 1148.16 805.77
  Q 1147.47 814.28 1146.39 825.70
  Q 1144.55 845.20 1143.19 862.87
  Q 1143.08 864.29 1142.96 865.76
  Q 1139.30 910.57 1135.94 946.05
  Q 1135.01 955.88 1134.23 965.96
  Q 1132.49 988.74 1129.97 1016.51
  Q 1127.89 1039.47 1127.35 1047.00
  C 1127.18 1049.33 1126.67 1051.55 1126.53 1053.86
  Q 1125.22 1074.64 1123.20 1095.32
  Q 1122.19 1105.62 1121.38 1115.22
  Q 1117.64 1159.52 1114.21 1199.57
  Q 1113.73 1205.10 1113.20 1210.42
  Q 1112.63 1216.23 1112.36 1221.99
  Q 1112.26 1224.14 1112.05 1226.53
  Q 1107.20 1279.79 1102.91 1329.53
  C 1102.67 1332.33 1102.09 1335.16 1101.99 1338.02
  Q 1101.62 1348.04 1100.69 1357.80
  Q 1098.36 1382.21 1096.04 1410.40
  Q 1095.85 1412.73 1095.25 1415.05
  C 1094.09 1419.47 1093.14 1423.87 1092.24 1428.34
  Q 1091.72 1430.94 1090.63 1433.69
  C 1089.67 1436.10 1089.58 1438.72 1088.76 1441.19
  Q 1087.12 1446.10 1085.55 1450.72
  Q 1081.29 1463.18 1074.67 1477.65
  Q 1072.41 1482.60 1069.89 1486.85
  Q 1068.34 1489.46 1068.01 1492.43
  Q 1067.95 1492.97 1067.50 1493.29
  Q 1066.11 1494.27 1065.31 1495.72
  Q 1064.02 1498.06 1063.97 1498.14
  Q 1060.21 1503.60 1056.72 1508.47
  Q 1055.71 1509.88 1054.29 1511.17
  Q 1053.46 1511.93 1053.03 1512.95
  Q 1052.48 1514.28 1051.59 1515.50
  Q 1045.02 1524.53 1037.82 1530.82
  Q 1035.84 1532.55 1034.04 1534.56
  Q 1032.33 1536.49 1029.98 1538.21
  Q 1027.77 1539.83 1022.72 1544.18
  Q 1020.04 1546.48 1017.57 1548.11
  Q 1015.07 1549.75 1012.12 1551.68
  Q 1010.92 1552.46 1009.77 1552.85
  Q 1009.31 1553.00 1009.02 1553.40
  C 1008.42 1554.24 1007.45 1554.21 1006.68 1554.81
  Q 1005.78 1555.52 1005.07 1556.28
  Q 1004.74 1556.64 1004.25 1556.65
  Q 1002.20 1556.68 1000.68 1558.06
  A 2.03 1.93 -72.0 0 1 999.81 1558.53
  Q 999.22 1558.67 998.58 1558.65
  Q 998.05 1558.64 998.33 1559.09
  Q 998.36 1559.14 998.37 1559.19
  Q 998.40 1559.36 998.23 1559.39
  C 995.96 1559.77 993.60 1561.38 991.57 1562.37
  C 987.82 1564.20 983.77 1565.00 980.03 1566.85
  Q 978.29 1567.70 976.21 1567.67
  Q 965.81 1567.53 955.40 1567.37
  Q 953.98 1567.34 952.75 1566.62
  Q 952.29 1566.35 952.59 1565.91
  L 953.22 1564.99
  Z"
/>
<path fill="#097015" d="
  M 1172.98 435.46
  C 1171.90 447.18 1171.14 459.19 1169.89 470.65
  Q 1169.04 478.56 1168.46 486.50
  Q 1168.21 489.93 1167.95 493.23
  Q 1166.13 516.57 1163.98 540.51
  C 1161.15 571.86 1158.50 603.13 1155.90 634.29
  Q 1155.15 643.17 1154.07 654.20
  Q 1152.60 669.21 1151.33 684.23
  Q 1139.32 826.29 1122.95 1015.74
  Q 1114.68 1111.47 1106.34 1208.23
  Q 1106.00 1212.27 1105.66 1216.26
  Q 1098.94 1296.17 1091.94 1376.05
  C 1091.36 1382.65 1091.14 1389.28 1090.21 1395.85
  C 1089.41 1401.52 1089.38 1407.32 1088.28 1412.93
  Q 1083.23 1438.79 1073.26 1463.07
  Q 1063.81 1486.12 1051.29 1503.45
  Q 1041.79 1516.60 1031.48 1526.88
  Q 1023.58 1534.76 1016.25 1539.83
  Q 1009.70 1544.35 1002.77 1549.07
  Q 1000.99 1550.29 999.18 1551.08
  C 991.81 1554.30 984.76 1557.92 976.87 1560.11
  Q 965.22 1563.33 953.22 1564.99
  Q 945.45 1565.58 937.75 1566.63
  Q 934.39 1567.09 923.75 1567.10
  Q 600.77 1567.21 277.79 1567.16
  C 272.78 1567.16 267.72 1566.71 262.66 1566.41
  C 259.44 1566.23 255.01 1565.35 251.04 1565.51
  Q 244.69 1564.30 238.33 1563.03
  Q 231.25 1561.62 225.89 1559.88
  Q 201.05 1551.84 181.50 1536.13
  C 160.15 1518.98 144.01 1495.52 132.71 1470.05
  Q 120.72 1443.03 115.45 1413.70
  C 114.22 1406.83 113.71 1399.66 113.12 1392.75
  Q 72.22 917.47 31.24 442.20
  L 31.08 434.92
  A 1.33 1.33 0.0 0 1 32.41 433.56
  Q 602.41 433.53 1172.00 433.54
  Q 1173.10 433.54 1172.98 435.46
  Z
  M 975.20 1123.25
  C 996.99 904.93 1016.14 686.53 1034.68 468.21
  Q 1034.75 467.35 1033.88 467.38
  Q 991.86 468.90 949.73 470.36
  Q 939.77 470.70 929.75 470.70
  Q 532.44 470.72 135.15 470.70
  A 0.59 0.59 0.0 0 0 134.56 471.33
  Q 157.73 897.25 180.84 1323.25
  Q 181.08 1327.67 181.37 1329.38
  Q 188.21 1369.29 204.87 1406.18
  C 215.94 1430.70 230.61 1453.26 249.86 1471.87
  Q 285.81 1506.63 336.25 1511.13
  C 342.60 1511.69 349.01 1512.20 355.27 1512.45
  C 423.94 1515.21 496.76 1514.07 564.55 1512.04
  Q 681.02 1508.53 799.99 1502.00
  Q 811.76 1501.36 819.62 1499.92
  Q 851.89 1494.01 879.29 1476.20
  Q 924.06 1447.10 940.26 1395.17
  C 944.75 1380.77 947.04 1367.17 949.55 1349.35
  Q 955.96 1303.84 962.45 1244.75
  Q 969.21 1183.17 975.20 1123.25
  Z"
/>
<path fill="#003105" d="
  M 31.24 442.20
  Q 72.22 917.47 113.12 1392.75
  C 113.71 1399.66 114.22 1406.83 115.45 1413.70
  Q 120.72 1443.03 132.71 1470.05
  C 144.01 1495.52 160.15 1518.98 181.50 1536.13
  Q 201.05 1551.84 225.89 1559.88
  Q 231.25 1561.62 238.33 1563.03
  Q 244.69 1564.30 251.04 1565.51
  Q 252.02 1565.90 252.03 1565.97
  A 1.06 1.04 -7.0 0 1 251.01 1567.25
  Q 239.03 1567.45 227.22 1567.18
  Q 225.49 1567.14 223.70 1566.63
  C 215.00 1564.17 207.35 1560.39 199.22 1556.19
  C 185.00 1548.84 171.44 1537.76 161.13 1526.56
  C 138.32 1501.79 123.47 1470.95 113.92 1437.66
  Q 110.75 1426.62 108.91 1416.51
  Q 107.50 1408.75 106.43 1396.29
  Q 96.48 1280.39 87.06 1172.00
  Q 83.89 1135.54 80.75 1098.89
  C 79.50 1084.29 78.36 1069.75 77.10 1055.38
  Q 67.30 943.54 58.48 838.48
  Q 54.58 792.04 51.23 756.00
  Q 50.99 753.40 50.75 750.77
  Q 48.91 730.45 46.52 702.27
  Q 31.17 520.92 23.84 437.30
  Q 23.73 435.99 24.02 434.44
  Q 24.16 433.71 24.90 433.72
  L 28.94 433.77
  Q 29.89 433.78 30.04 434.73
  L 31.24 442.20
  Z"
/>
<path fill="#31aa4b" d="
  M 1034.68 468.21
  C 1016.14 686.53 996.99 904.93 975.20 1123.25
  Q 969.21 1183.17 962.45 1244.75
  Q 955.96 1303.84 949.55 1349.35
  C 947.04 1367.17 944.75 1380.77 940.26 1395.17
  Q 924.06 1447.10 879.29 1476.20
  Q 851.89 1494.01 819.62 1499.92
  Q 811.76 1501.36 799.99 1502.00
  Q 681.02 1508.53 564.55 1512.04
  C 496.76 1514.07 423.94 1515.21 355.27 1512.45
  C 349.01 1512.20 342.60 1511.69 336.25 1511.13
  Q 285.81 1506.63 249.86 1471.87
  C 230.61 1453.26 215.94 1430.70 204.87 1406.18
  Q 188.21 1369.29 181.37 1329.38
  Q 181.08 1327.67 180.84 1323.25
  Q 157.73 897.25 134.56 471.33
  A 0.59 0.59 0.0 0 1 135.15 470.70
  Q 532.44 470.72 929.75 470.70
  Q 939.77 470.70 949.73 470.36
  Q 991.86 468.90 1033.88 467.38
  Q 1034.75 467.35 1034.68 468.21
  Z
  M 601.97 929.52
  Q 602.32 928.80 602.77 929.46
  L 626.26 964.07
  A 0.97 0.97 0.0 0 1 626.00 965.42
  Q 609.08 976.93 590.75 989.45
  C 587.52 991.65 585.48 994.84 587.37 998.82
  Q 589.04 1002.32 592.51 1002.75
  Q 604.30 1004.20 614.86 1005.73
  Q 628.47 1007.71 634.67 1008.51
  Q 673.81 1013.57 713.49 1018.80
  C 717.62 1019.34 720.90 1017.48 721.88 1013.55
  Q 736.94 953.32 751.57 894.93
  C 753.23 888.29 746.41 883.73 740.72 887.53
  Q 726.78 896.83 713.12 906.14
  A 1.32 1.32 0.0 0 1 711.29 905.80
  Q 696.08 883.73 682.29 863.05
  Q 674.70 851.65 670.19 847.34
  Q 661.59 839.14 649.63 835.47
  Q 643.77 833.67 634.86 832.79
  Q 627.18 832.03 620.31 831.35
  Q 608.16 830.15 587.26 830.38
  Q 569.26 830.57 550.76 834.37
  Q 539.76 836.62 531.71 839.97
  C 520.96 844.45 513.11 852.73 506.20 862.46
  Q 490.22 884.95 477.93 913.54
  C 476.17 917.62 476.83 921.61 481.09 923.75
  Q 527.12 946.92 571.07 969.10
  C 575.88 971.53 580.59 973.04 583.66 966.84
  Q 593.75 946.44 601.97 929.52
  Z
  M 514.13 1063.86
  A 0.64 0.64 0.0 0 1 515.01 1063.63
  Q 533.23 1074.60 552.07 1085.77
  Q 557.84 1089.19 561.43 1085.72
  Q 564.66 1082.60 563.35 1078.47
  Q 544.82 1020.23 526.34 961.72
  Q 524.34 955.39 516.40 956.93
  Q 477.56 964.49 440.81 971.48
  Q 430.09 973.51 421.22 975.44
  Q 410.79 977.71 400.24 979.61
  C 395.35 980.48 391.46 982.75 392.43 988.23
  C 392.93 991.08 395.15 992.61 397.53 994.00
  Q 410.76 1001.78 425.06 1010.25
  A 0.94 0.94 0.0 0 1 425.39 1011.54
  Q 413.20 1032.03 401.17 1052.18
  Q 393.00 1065.87 391.21 1070.04
  C 386.85 1080.15 385.26 1095.31 389.40 1106.76
  Q 391.56 1112.75 393.73 1118.96
  C 402.66 1144.45 414.58 1169.23 430.61 1190.36
  C 439.05 1201.48 448.88 1210.13 462.59 1213.78
  Q 473.75 1216.75 487.02 1218.31
  Q 510.16 1221.03 532.35 1219.88
  C 536.90 1219.65 538.70 1216.75 538.85 1212.62
  Q 538.90 1210.98 538.96 1209.29
  Q 539.53 1190.85 540.17 1173.25
  Q 541.34 1141.00 541.80 1109.96
  C 541.93 1101.33 536.32 1101.68 529.75 1101.55
  Q 511.27 1101.20 493.00 1100.94
  A 0.50 0.50 0.0 0 1 492.58 1100.18
  L 514.13 1063.86
  Z
  M 702.38 1104.56
  Q 702.21 1104.97 701.91 1104.88
  Q 701.75 1104.84 701.58 1104.83
  Q 680.97 1104.68 659.42 1104.82
  A 0.45 0.45 0.0 0 1 658.96 1104.36
  Q 659.06 1083.98 658.91 1060.56
  Q 658.90 1059.14 658.57 1057.66
  C 657.66 1053.65 652.79 1052.08 649.44 1053.56
  Q 647.54 1054.40 644.41 1057.93
  C 619.21 1086.30 593.24 1115.15 567.13 1144.52
  Q 564.21 1147.80 563.76 1149.64
  Q 562.84 1153.42 565.35 1156.23
  Q 604.65 1200.17 646.48 1247.01
  Q 650.18 1251.15 655.08 1249.12
  C 659.15 1247.43 658.95 1243.12 658.97 1239.51
  Q 659.04 1224.22 658.94 1208.76
  A 0.92 0.92 0.0 0 1 659.86 1207.83
  Q 688.68 1207.83 716.65 1207.93
  Q 727.44 1207.96 733.77 1206.30
  Q 745.85 1203.13 754.70 1195.45
  Q 758.01 1192.57 763.79 1185.65
  Q 767.89 1180.74 772.33 1175.34
  Q 792.89 1150.31 806.60 1122.17
  Q 809.99 1115.23 813.14 1106.25
  Q 819.77 1087.38 813.74 1068.94
  Q 804.65 1041.10 784.96 1010.10
  C 782.55 1006.31 778.78 1005.32 774.78 1007.36
  Q 773.00 1008.26 771.23 1009.25
  Q 730.05 1032.23 684.50 1057.56
  C 680.32 1059.89 679.48 1063.94 681.70 1067.88
  Q 693.53 1088.89 702.35 1104.14
  A 0.48 0.46 -49.8 0 1 702.38 1104.56
  Z"
/>
<path fill="#306a3a" d="
  M 601.97 929.52
  Q 593.75 946.44 583.66 966.84
  C 580.59 973.04 575.88 971.53 571.07 969.10
  Q 527.12 946.92 481.09 923.75
  C 476.83 921.61 476.17 917.62 477.93 913.54
  Q 490.22 884.95 506.20 862.46
  C 513.11 852.73 520.96 844.45 531.71 839.97
  Q 539.76 836.62 550.76 834.37
  Q 569.26 830.57 587.26 830.38
  Q 608.16 830.15 620.31 831.35
  Q 627.18 832.03 634.86 832.79
  Q 643.77 833.67 649.63 835.47
  Q 661.59 839.14 670.19 847.34
  Q 674.70 851.65 682.29 863.05
  Q 696.08 883.73 711.29 905.80
  A 1.32 1.32 0.0 0 0 713.12 906.14
  Q 726.78 896.83 740.72 887.53
  C 746.41 883.73 753.23 888.29 751.57 894.93
  Q 736.94 953.32 721.88 1013.55
  C 720.90 1017.48 717.62 1019.34 713.49 1018.80
  Q 673.81 1013.57 634.67 1008.51
  Q 628.47 1007.71 614.86 1005.73
  Q 604.30 1004.20 592.51 1002.75
  Q 589.04 1002.32 587.37 998.82
  C 585.48 994.84 587.52 991.65 590.75 989.45
  Q 609.08 976.93 626.00 965.42
  A 0.97 0.97 0.0 0 0 626.26 964.07
  L 602.77 929.46
  Q 602.32 928.80 601.97 929.52
  Z
  M 541.01 854.31
  C 569.16 857.55 592.08 882.84 604.69 906.69
  Q 607.82 912.62 611.32 917.70
  Q 625.82 938.79 641.98 962.64
  C 644.75 966.73 643.14 970.60 639.48 973.07
  Q 624.68 983.07 613.28 990.87
  Q 612.48 991.41 613.44 991.54
  L 709.46 1004.34
  A 0.57 0.56 -78.4 0 0 710.08 1003.92
  L 733.62 909.92
  Q 733.90 908.80 732.95 909.45
  Q 723.96 915.53 714.94 921.70
  C 711.54 924.02 707.24 924.37 704.61 920.57
  Q 686.86 894.82 669.51 868.84
  Q 663.02 859.11 658.53 855.46
  Q 650.13 848.62 639.28 847.23
  C 607.79 843.19 576.10 842.16 545.95 849.66
  Q 540.40 851.04 535.64 853.28
  Q 534.71 853.71 535.73 853.80
  Q 538.43 854.02 541.01 854.31
  Z
  M 574.33 954.51
  L 593.24 915.95
  A 1.42 1.37 -41.4 0 0 593.32 914.91
  Q 593.03 913.98 592.56 913.11
  C 579.56 889.67 557.26 864.69 527.98 867.98
  C 522.70 868.57 515.02 873.69 512.16 878.22
  Q 500.92 896.02 493.00 913.70
  A 0.57 0.57 0.0 0 0 493.26 914.44
  L 573.48 954.79
  Q 574.05 955.08 574.33 954.51
  Z"
/>
<path fill="#ffffff" d="
  M 604.69 906.69
  C 592.08 882.84 569.16 857.55 541.01 854.31
  Q 538.43 854.02 535.73 853.80
  Q 534.71 853.71 535.64 853.28
  Q 540.40 851.04 545.95 849.66
  C 576.10 842.16 607.79 843.19 639.28 847.23
  Q 650.13 848.62 658.53 855.46
  Q 663.02 859.11 669.51 868.84
  Q 686.86 894.82 704.61 920.57
  C 707.24 924.37 711.54 924.02 714.94 921.70
  Q 723.96 915.53 732.95 909.45
  Q 733.90 908.80 733.62 909.92
  L 710.08 1003.92
  A 0.57 0.56 -78.4 0 1 709.46 1004.34
  L 613.44 991.54
  Q 612.48 991.41 613.28 990.87
  Q 624.68 983.07 639.48 973.07
  C 643.14 970.60 644.75 966.73 641.98 962.64
  Q 625.82 938.79 611.32 917.70
  Q 607.82 912.62 604.69 906.69
  Z"
/>
<path fill="#d8d5b6" d="
  M 593.24 915.95
  L 574.33 954.51
  Q 574.05 955.08 573.48 954.79
  L 493.26 914.44
  A 0.57 0.57 0.0 0 1 493.00 913.70
  Q 500.92 896.02 512.16 878.22
  C 515.02 873.69 522.70 868.57 527.98 867.98
  C 557.26 864.69 579.56 889.67 592.56 913.11
  Q 593.03 913.98 593.32 914.91
  A 1.42 1.37 -41.4 0 1 593.24 915.95
  Z"
/>
<path fill="#306a3a" d="
  M 514.13 1063.86
  L 492.58 1100.18
  A 0.50 0.50 0.0 0 0 493.00 1100.94
  Q 511.27 1101.20 529.75 1101.55
  C 536.32 1101.68 541.93 1101.33 541.80 1109.96
  Q 541.34 1141.00 540.17 1173.25
  Q 539.53 1190.85 538.96 1209.29
  Q 538.90 1210.98 538.85 1212.62
  C 538.70 1216.75 536.90 1219.65 532.35 1219.88
  Q 510.16 1221.03 487.02 1218.31
  Q 473.75 1216.75 462.59 1213.78
  C 448.88 1210.13 439.05 1201.48 430.61 1190.36
  C 414.58 1169.23 402.66 1144.45 393.73 1118.96
  Q 391.56 1112.75 389.40 1106.76
  C 385.26 1095.31 386.85 1080.15 391.21 1070.04
  Q 393.00 1065.87 401.17 1052.18
  Q 413.20 1032.03 425.39 1011.54
  A 0.94 0.94 0.0 0 0 425.06 1010.25
  Q 410.76 1001.78 397.53 994.00
  C 395.15 992.61 392.93 991.08 392.43 988.23
  C 391.46 982.75 395.35 980.48 400.24 979.61
  Q 410.79 977.71 421.22 975.44
  Q 430.09 973.51 440.81 971.48
  Q 477.56 964.49 516.40 956.93
  Q 524.34 955.39 526.34 961.72
  Q 544.82 1020.23 563.35 1078.47
  Q 564.66 1082.60 561.43 1085.72
  Q 557.84 1089.19 552.07 1085.77
  Q 533.23 1074.60 515.01 1063.63
  A 0.64 0.64 0.0 0 0 514.13 1063.86
  Z
  M 405.70 1071.70
  C 400.37 1080.66 399.45 1091.77 402.48 1101.42
  C 409.71 1124.50 419.40 1147.61 431.76 1167.80
  Q 440.66 1182.33 451.03 1192.48
  Q 453.13 1194.53 452.05 1191.80
  C 440.61 1163.02 454.27 1130.25 471.74 1107.17
  Q 475.42 1102.30 478.66 1096.81
  Q 492.43 1073.41 506.08 1050.44
  C 508.77 1045.91 513.32 1046.53 517.32 1048.92
  Q 530.98 1057.11 543.69 1064.66
  Q 544.56 1065.18 544.26 1064.21
  L 515.12 971.94
  A 0.73 0.72 -13.9 0 0 514.29 971.45
  L 419.43 989.90
  Q 418.22 990.13 419.29 990.76
  Q 428.80 996.35 438.53 1002.15
  C 443.43 1005.08 442.80 1009.48 440.19 1013.85
  Q 423.32 1042.10 405.70 1071.70
  Z
  M 461.89 1164.84
  C 460.82 1176.37 464.20 1193.97 475.39 1200.26
  C 478.19 1201.83 480.96 1203.56 484.25 1203.99
  Q 504.34 1206.65 525.03 1206.42
  A 0.42 0.42 0.0 0 0 525.45 1206.01
  L 527.96 1116.02
  A 0.71 0.71 0.0 0 0 527.26 1115.29
  L 483.79 1114.57
  A 0.68 0.65 -70.1 0 0 483.24 1114.84
  C 472.58 1129.19 463.56 1146.99 461.89 1164.84
  Z"
/>
<path fill="#ffffff" d="
  M 402.48 1101.42
  C 399.45 1091.77 400.37 1080.66 405.70 1071.70
  Q 423.32 1042.10 440.19 1013.85
  C 442.80 1009.48 443.43 1005.08 438.53 1002.15
  Q 428.80 996.35 419.29 990.76
  Q 418.22 990.13 419.43 989.90
  L 514.29 971.45
  A 0.73 0.72 -13.9 0 1 515.12 971.94
  L 544.26 1064.21
  Q 544.56 1065.18 543.69 1064.66
  Q 530.98 1057.11 517.32 1048.92
  C 513.32 1046.53 508.77 1045.91 506.08 1050.44
  Q 492.43 1073.41 478.66 1096.81
  Q 475.42 1102.30 471.74 1107.17
  C 454.27 1130.25 440.61 1163.02 452.05 1191.80
  Q 453.13 1194.53 451.03 1192.48
  Q 440.66 1182.33 431.76 1167.80
  C 419.40 1147.61 409.71 1124.50 402.48 1101.42
  Z"
/>
<path fill="#306a3a" d="
  M 702.38 1104.56
  A 0.48 0.46 -49.8 0 0 702.35 1104.14
  Q 693.53 1088.89 681.70 1067.88
  C 679.48 1063.94 680.32 1059.89 684.50 1057.56
  Q 730.05 1032.23 771.23 1009.25
  Q 773.00 1008.26 774.78 1007.36
  C 778.78 1005.32 782.55 1006.31 784.96 1010.10
  Q 804.65 1041.10 813.74 1068.94
  Q 819.77 1087.38 813.14 1106.25
  Q 809.99 1115.23 806.60 1122.17
  Q 792.89 1150.31 772.33 1175.34
  Q 767.89 1180.74 763.79 1185.65
  Q 758.01 1192.57 754.70 1195.45
  Q 745.85 1203.13 733.77 1206.30
  Q 727.44 1207.96 716.65 1207.93
  Q 688.68 1207.83 659.86 1207.83
  A 0.92 0.92 0.0 0 0 658.94 1208.76
  Q 659.04 1224.22 658.97 1239.51
  C 658.95 1243.12 659.15 1247.43 655.08 1249.12
  Q 650.18 1251.15 646.48 1247.01
  Q 604.65 1200.17 565.35 1156.23
  Q 562.84 1153.42 563.76 1149.64
  Q 564.21 1147.80 567.13 1144.52
  C 593.24 1115.15 619.21 1086.30 644.41 1057.93
  Q 647.54 1054.40 649.44 1053.56
  C 652.79 1052.08 657.66 1053.65 658.57 1057.66
  Q 658.90 1059.14 658.91 1060.56
  Q 659.06 1083.98 658.96 1104.36
  A 0.45 0.45 0.0 0 0 659.42 1104.82
  Q 680.97 1104.68 701.58 1104.83
  Q 701.75 1104.84 701.91 1104.88
  Q 702.21 1104.97 702.38 1104.56
  Z
  M 794.73 1057.50
  C 789.27 1045.46 783.34 1033.85 776.70 1022.96
  A 0.76 0.76 0.0 0 0 775.68 1022.69
  L 697.49 1066.21
  A 0.77 0.77 0.0 0 0 697.19 1067.26
  L 718.40 1104.61
  A 1.50 1.49 -11.7 0 0 719.55 1105.36
  C 746.00 1108.19 780.19 1104.34 794.49 1078.02
  C 797.56 1072.38 797.35 1063.26 794.73 1057.50
  Z
  M 799.18 1095.47
  C 779.30 1117.58 746.67 1122.15 718.69 1119.12
  Q 712.63 1118.46 706.97 1118.47
  Q 680.14 1118.51 652.26 1118.50
  C 647.35 1118.50 645.19 1115.08 645.22 1110.51
  Q 645.30 1094.48 645.26 1078.88
  Q 645.26 1077.83 644.56 1078.62
  L 580.18 1150.87
  A 0.83 0.83 0.0 0 0 580.18 1151.97
  L 644.74 1224.31
  Q 645.30 1224.93 645.30 1224.09
  Q 645.25 1214.97 645.25 1201.35
  C 645.25 1196.70 648.28 1194.05 652.64 1194.04
  Q 686.42 1193.96 717.96 1194.07
  Q 726.44 1194.10 731.81 1192.56
  Q 741.48 1189.80 748.28 1182.39
  Q 755.63 1174.39 766.82 1159.93
  Q 783.28 1138.64 794.11 1116.19
  C 797.72 1108.70 801.38 1100.05 802.56 1091.97
  Q 802.67 1091.19 802.15 1091.78
  C 801.11 1092.95 800.25 1094.29 799.18 1095.47
  Z"
/>
<path fill="#d8d5b6" d="
  M 776.70 1022.96
  C 783.34 1033.85 789.27 1045.46 794.73 1057.50
  C 797.35 1063.26 797.56 1072.38 794.49 1078.02
  C 780.19 1104.34 746.00 1108.19 719.55 1105.36
  A 1.50 1.49 -11.7 0 1 718.40 1104.61
  L 697.19 1067.26
  A 0.77 0.77 0.0 0 1 697.49 1066.21
  L 775.68 1022.69
  A 0.76 0.76 0.0 0 1 776.70 1022.96
  Z"
/>
<path fill="#ffffff" d="
  M 718.69 1119.12
  C 746.67 1122.15 779.30 1117.58 799.18 1095.47
  C 800.25 1094.29 801.11 1092.95 802.15 1091.78
  Q 802.67 1091.19 802.56 1091.97
  C 801.38 1100.05 797.72 1108.70 794.11 1116.19
  Q 783.28 1138.64 766.82 1159.93
  Q 755.63 1174.39 748.28 1182.39
  Q 741.48 1189.80 731.81 1192.56
  Q 726.44 1194.10 717.96 1194.07
  Q 686.42 1193.96 652.64 1194.04
  C 648.28 1194.05 645.25 1196.70 645.25 1201.35
  Q 645.25 1214.97 645.30 1224.09
  Q 645.30 1224.93 644.74 1224.31
  L 580.18 1151.97
  A 0.83 0.83 0.0 0 1 580.18 1150.87
  L 644.56 1078.62
  Q 645.26 1077.83 645.26 1078.88
  Q 645.30 1094.48 645.22 1110.51
  C 645.19 1115.08 647.35 1118.50 652.26 1118.50
  Q 680.14 1118.51 706.97 1118.47
  Q 712.63 1118.46 718.69 1119.12
  Z"
/>
<path fill="#d8d5b6" d="
  M 475.39 1200.26
  C 464.20 1193.97 460.82 1176.37 461.89 1164.84
  C 463.56 1146.99 472.58 1129.19 483.24 1114.84
  A 0.68 0.65 -70.1 0 1 483.79 1114.57
  L 527.26 1115.29
  A 0.71 0.71 0.0 0 1 527.96 1116.02
  L 525.45 1206.01
  A 0.42 0.42 0.0 0 1 525.03 1206.42
  Q 504.34 1206.65 484.25 1203.99
  C 480.96 1203.56 478.19 1201.83 475.39 1200.26
  Z"
/>
<path fill="#8b8b8b" d="
  M 1201.00 1351.00
  L 1201.00 1580.12
  L 1201.00 1697.76
  L 1201.00 1700.22
  Q 1200.49 1702.57 1201.00 1704.90
  L 1201.00 1707.23
  L 1201.00 1713.89
  L 1201.00 1715.98
  L 1201.00 1722.64
  L 1201.00 1745.00
  L 1196.13 1745.00
  Q 1200.03 1731.77 1200.10 1720.50
  Q 1200.36 1681.70 1200.09 1576.24
  Q 1200.06 1563.59 1198.77 1556.45
  Q 1193.27 1526.06 1171.24 1503.91
  Q 1170.87 1503.53 1171.07 1503.05
  Q 1184.83 1469.74 1191.93 1433.76
  Q 1193.79 1424.33 1194.69 1414.74
  Q 1197.44 1385.19 1199.76 1354.86
  Q 1200.12 1350.18 1200.37 1345.47
  Q 1200.38 1345.31 1200.54 1345.31
  L 1200.54 1345.31
  Q 1200.70 1345.32 1200.70 1345.47
  Q 1200.75 1348.24 1201.00 1351.00
  Z"
/>
<path fill="#003105" d="
  M 1094.77 1634.75
  L 1094.79 1581.31
  A 0.56 0.55 0.0 0 0 1094.23 1580.76
  L 99.70 1580.77
  A 0.79 0.79 0.0 0 0 98.91 1581.56
  L 98.88 1635.18
  Q 96.99 1636.24 93.70 1635.96
  A 1.65 1.64 -87.5 0 1 92.20 1634.32
  L 92.08 1574.70
  A 0.81 0.81 0.0 0 1 92.89 1573.89
  Q 106.32 1573.86 122.35 1573.57
  Q 128.58 1573.45 134.81 1573.52
  Q 146.89 1573.65 158.74 1573.65
  Q 159.77 1573.65 160.76 1573.79
  C 161.69 1573.91 162.45 1573.58 163.41 1573.59
  Q 200.60 1573.83 238.54 1573.33
  Q 240.03 1573.31 241.48 1573.16
  C 243.23 1572.98 244.79 1573.36 246.52 1573.37
  Q 258.16 1573.44 270.25 1573.52
  Q 273.33 1573.55 276.41 1573.67
  Q 279.57 1573.80 282.61 1573.80
  Q 578.72 1573.76 871.01 1573.86
  C 898.05 1573.86 925.05 1574.05 952.00 1573.40
  Q 963.11 1573.13 972.00 1573.27
  Q 982.08 1573.43 991.69 1573.69
  Q 1002.09 1573.98 1011.34 1573.92
  Q 1038.13 1573.77 1068.55 1573.65
  C 1078.66 1573.62 1089.82 1574.08 1100.34 1573.66
  A 1.38 1.38 0.0 0 1 1101.77 1575.18
  Q 1101.58 1577.16 1101.57 1578.96
  Q 1101.41 1607.06 1101.66 1634.16
  A 1.84 1.84 0.0 0 1 1100.18 1635.99
  Q 1095.09 1637.02 1094.77 1634.75
  Z"
/>
<path fill="#ffffff" d="
  M 1201.00 1580.12
  L 1201.00 1697.76
  L 1201.00 1580.12
  Z"
/>
<path fill="#097015" d="
  M 1094.77 1634.75
  Q 1094.90 1635.46 1094.70 1636.50
  Q 1091.39 1636.05 1086.50 1636.05
  Q 597.50 1636.05 108.50 1636.06
  Q 103.81 1636.06 99.00 1636.36
  Q 99.17 1636.01 98.88 1635.18
  L 98.91 1581.56
  A 0.79 0.79 0.0 0 1 99.70 1580.77
  L 1094.23 1580.76
  A 0.56 0.55 0.0 0 1 1094.79 1581.31
  L 1094.77 1634.75
  Z"
/>
<path fill="#31aa4b" d="
  M 1094.70 1636.50
  L 1094.73 1708.11
  Q 1094.73 1709.03 1093.81 1709.03
  L 99.80 1709.02
  A 0.78 0.77 90.0 0 1 99.03 1708.24
  L 99.00 1636.36
  Q 103.81 1636.06 108.50 1636.06
  Q 597.50 1636.05 1086.50 1636.05
  Q 1091.39 1636.05 1094.70 1636.50
  Z"
/>
<path fill="#d8d5b6" d="
  M 1201.00 1700.22
  L 1201.00 1704.90
  Q 1200.49 1702.57 1201.00 1700.22
  Z"
/>
<path fill="#d8d5b6" d="
  M 1201.00 1707.23
  L 1201.00 1713.89
  L 1201.00 1707.23
  Z"
/>
<path fill="#d8d5b6" d="
  M 1201.00 1715.98
  L 1201.00 1722.64
  L 1201.00 1715.98
  Z"
/>
</svg>
