<?xml version="1.0" encoding="UTF-8" standalone="no"?>
<!DOCTYPE svg PUBLIC "-//W3C//DTD SVG 1.1//EN" "http://www.w3.org/Graphics/SVG/1.1/DTD/svg11.dtd">
<svg xmlns="http://www.w3.org/2000/svg" version="1.1" viewBox="0.00 0.00 48.00 48.00">
<g stroke-width="2.00" fill="none" stroke-linecap="butt">
<path stroke="#bec3c7" vector-effect="non-scaling-stroke" d="
  M 30.92 9.49
  Q 24.29 12.93 17.83 11.65
  Q 14.12 10.91 12.29 11.12"
/>
<path stroke="#b6bcc0" vector-effect="non-scaling-stroke" d="
  M 12.29 11.12
  Q 12.14 10.86 11.79 11.07"
/>
<path stroke="#bec3c7" vector-effect="non-scaling-stroke" d="
  M 11.79 11.07
  Q 11.48 10.93 10.99 10.92"
/>
<path stroke="#b2b9be" vector-effect="non-scaling-stroke" d="
  M 31.16 12.11
  Q 30.35 13.45 29.87 12.26"
/>
<path stroke="#bec3c7" vector-effect="non-scaling-stroke" d="
  M 29.87 12.26
  L 20.01 15.89"
/>
<path stroke="#8b959c" vector-effect="non-scaling-stroke" d="
  M 20.01 15.89
  C 18.26 13.96 17.02 13.66 15.03 12.70
  Q 14.58 12.48 14.26 12.08
  Q 13.54 11.16 12.29 11.12"
/>
<path stroke="#8b959c" vector-effect="non-scaling-stroke" d="
  M 11.79 11.07
  Q 11.89 11.34 11.90 11.65
  A 1.11 1.10 -62.3 0 0 12.09 12.27
  L 16.39 18.79"
/>
<path stroke="#bec3c7" vector-effect="non-scaling-stroke" d="
  M 16.39 18.79
  Q 14.03 20.55 10.29 22.06
  Q 9.13 22.53 8.32 24.46"
/>
<path stroke="#a1a7ae" vector-effect="non-scaling-stroke" d="
  M 8.32 24.46
  Q 8.06 24.29 7.05 24.61"
/>
<path stroke="#b6bcc0" vector-effect="non-scaling-stroke" d="
  M 20.01 15.89
  L 16.39 18.79"
/>
<path stroke="#dde0e2" vector-effect="non-scaling-stroke" d="
  M 29.87 12.26
  Q 30.52 13.73 30.37 14.25
  Q 28.88 19.59 24.79 23.08"
/>
<path stroke="#ccced2" vector-effect="non-scaling-stroke" d="
  M 24.79 23.08
  Q 21.32 23.08 18.18 22.33
  Q 16.32 21.88 14.96 22.10
  C 13.24 22.37 11.34 22.54 9.98 23.71
  Q 8.98 24.56 8.32 24.46"
/>
<path stroke="#c7cbcf" vector-effect="non-scaling-stroke" d="
  M 41.10 24.36
  L 39.96 25.86"
/>
<path stroke="#aab1b6" vector-effect="non-scaling-stroke" d="
  M 39.96 25.86
  L 35.32 31.78"
/>
<path stroke="#bfc4c9" vector-effect="non-scaling-stroke" d="
  M 35.32 31.78
  L 24.79 23.08"
/>
<path stroke="#99a0a7" vector-effect="non-scaling-stroke" d="
  M 35.32 31.78
  L 31.17 36.17"
/>
<path stroke="#bfc4c9" vector-effect="non-scaling-stroke" d="
  M 31.17 36.17
  L 25.18 26.27"
/>
<path stroke="#ccced2" vector-effect="non-scaling-stroke" d="
  M 25.18 26.27
  Q 24.35 25.34 23.64 25.08
  C 21.69 24.35 19.24 25.22 18.31 27.04
  C 17.40 28.84 13.69 30.74 11.95 31.90"
/>
<path stroke="#a6abb3" vector-effect="non-scaling-stroke" d="
  M 11.95 31.90
  Q 11.64 32.12 11.62 32.20"
/>
<path stroke="#bfc4c9" vector-effect="non-scaling-stroke" d="
  M 11.62 32.20
  Q 10.16 32.36 9.36 31.84
  A 1.00 0.99 -74.5 0 1 8.92 31.05
  L 8.84 29.00"
/>
<path stroke="#a0a7ad" vector-effect="non-scaling-stroke" d="
  M 28.01 45.09
  L 29.99 40.56
  Q 30.25 39.98 30.88 40.00
  L 34.09 40.06
  Q 34.65 40.07 34.99 39.62
  Q 39.42 33.63 40.29 26.25
  Q 40.60 26.14 39.96 25.86"
/>
<path stroke="#9199a0" vector-effect="non-scaling-stroke" d="
  M 11.77 43.28
  Q 15.69 41.67 17.49 39.07
  Q 17.77 38.66 18.17 38.38
  L 22.90 35.01"
/>
<path stroke="#aab1b6" vector-effect="non-scaling-stroke" d="
  M 22.90 35.01
  L 26.26 39.57
  A 1.00 0.99 48.8 0 0 27.77 39.68
  L 31.17 36.17"
/>
<path stroke="#b7bdc2" vector-effect="non-scaling-stroke" d="
  M 11.62 32.20
  Q 8.79 35.01 7.25 35.00
  Q 5.26 34.99 2.31 35.44"
/>
<path stroke="#b7bdc2" vector-effect="non-scaling-stroke" d="
  M 22.90 35.01
  Q 21.69 32.60 19.59 31.32"
/>
<path stroke="#dde0e2" vector-effect="non-scaling-stroke" d="
  M 25.18 26.27
  L 22.70 27.03
  Q 22.22 27.17 21.95 27.60
  L 19.59 31.32"
/>
<path stroke="#c4c7cc" vector-effect="non-scaling-stroke" d="
  M 19.59 31.32
  Q 16.12 32.46 11.95 31.90"
/>
</g>
<path fill="#e9eaeb" d="
  M 30.92 9.49
  Q 24.29 12.93 17.83 11.65
  Q 14.12 10.91 12.29 11.12
  Q 12.14 10.86 11.79 11.07
  Q 11.48 10.93 10.99 10.92
  L 12.40 9.41
  A 1.31 1.28 20.9 0 1 13.35 9.00
  L 16.54 9.00
  A 1.19 1.18 21.2 0 0 17.41 8.62
  L 22.21 3.43
  A 1.30 1.30 0.0 0 1 23.98 3.30
  Q 27.56 6.19 30.70 8.80
  Q 31.10 9.13 30.92 9.49
  Z"
/>
<path fill="#939ca3" d="
  M 30.92 9.49
  L 31.16 12.11
  Q 30.35 13.45 29.87 12.26
  L 20.01 15.89
  C 18.26 13.96 17.02 13.66 15.03 12.70
  Q 14.58 12.48 14.26 12.08
  Q 13.54 11.16 12.29 11.12
  Q 14.12 10.91 17.83 11.65
  Q 24.29 12.93 30.92 9.49
  Z"
/>
<path fill="#939ca3" d="
  M 10.99 10.92
  Q 11.48 10.93 11.79 11.07
  Q 11.89 11.34 11.90 11.65
  A 1.11 1.10 -62.3 0 0 12.09 12.27
  L 16.39 18.79
  Q 14.03 20.55 10.29 22.06
  Q 9.13 22.53 8.32 24.46
  Q 8.06 24.29 7.05 24.61
  Q 6.96 22.27 7.00 20.00
  Q 7.04 17.80 8.18 15.79
  Q 9.58 13.34 10.99 10.92
  Z"
/>
<path fill="#838d94" d="
  M 11.79 11.07
  Q 12.14 10.86 12.29 11.12
  Q 13.54 11.16 14.26 12.08
  Q 14.58 12.48 15.03 12.70
  C 17.02 13.66 18.26 13.96 20.01 15.89
  L 16.39 18.79
  L 12.09 12.27
  A 1.11 1.10 -62.3 0 1 11.90 11.65
  Q 11.89 11.34 11.79 11.07
  Z"
/>
<path fill="#e9eaeb" d="
  M 29.87 12.26
  Q 30.52 13.73 30.37 14.25
  Q 28.88 19.59 24.79 23.08
  Q 21.32 23.08 18.18 22.33
  Q 16.32 21.88 14.96 22.10
  C 13.24 22.37 11.34 22.54 9.98 23.71
  Q 8.98 24.56 8.32 24.46
  Q 9.13 22.53 10.29 22.06
  Q 14.03 20.55 16.39 18.79
  L 20.01 15.89
  L 29.87 12.26
  Z"
/>
<path fill="#d0d5d8" d="
  M 31.16 12.11
  L 34.33 13.74
  A 1.60 1.57 51.2 0 0 35.43 13.87
  C 39.00 13.04 42.00 12.25 45.37 14.56
  A 1.19 1.19 0.0 0 1 45.73 16.12
  L 41.10 24.36
  L 39.96 25.86
  L 35.32 31.78
  L 24.79 23.08
  Q 28.88 19.59 30.37 14.25
  Q 30.52 13.73 29.87 12.26
  Q 30.35 13.45 31.16 12.11
  Z"
/>
<path fill="#aeb2b9" d="
  M 24.79 23.08
  L 35.32 31.78
  L 31.17 36.17
  L 25.18 26.27
  Q 24.35 25.34 23.64 25.08
  C 21.69 24.35 19.24 25.22 18.31 27.04
  C 17.40 28.84 13.69 30.74 11.95 31.90
  Q 11.64 32.12 11.62 32.20
  Q 10.16 32.36 9.36 31.84
  A 1.00 0.99 -74.5 0 1 8.92 31.05
  L 8.84 29.00
  C 8.32 27.51 6.64 26.52 7.05 24.61
  Q 8.06 24.29 8.32 24.46
  Q 8.98 24.56 9.98 23.71
  C 11.34 22.54 13.24 22.37 14.96 22.10
  Q 16.32 21.88 18.18 22.33
  Q 21.32 23.08 24.79 23.08
  Z"
/>
<path fill="#bdc0c5" d="
  M 41.10 24.36
  Q 43.74 29.98 43.83 35.87
  A 2.38 2.38 0.0 0 1 42.03 38.22
  Q 39.76 38.79 37.36 39.35
  Q 35.42 39.80 33.18 41.52
  Q 30.74 43.42 28.01 45.09
  L 29.99 40.56
  Q 30.25 39.98 30.88 40.00
  L 34.09 40.06
  Q 34.65 40.07 34.99 39.62
  Q 39.42 33.63 40.29 26.25
  Q 40.60 26.14 39.96 25.86
  L 41.10 24.36
  Z"
/>
<path fill="#e9eaeb" d="
  M 25.18 26.27
  L 22.70 27.03
  Q 22.22 27.17 21.95 27.60
  L 19.59 31.32
  Q 16.12 32.46 11.95 31.90
  C 13.69 30.74 17.40 28.84 18.31 27.04
  C 19.24 25.22 21.69 24.35 23.64 25.08
  Q 24.35 25.34 25.18 26.27
  Z"
/>
<path fill="#838d94" d="
  M 39.96 25.86
  Q 40.60 26.14 40.29 26.25
  Q 39.42 33.63 34.99 39.62
  Q 34.65 40.07 34.09 40.06
  L 30.88 40.00
  Q 30.25 39.98 29.99 40.56
  L 28.01 45.09
  C 25.89 44.21 23.65 42.85 21.36 43.16
  C 19.11 43.47 16.78 44.03 14.52 43.68
  Q 13.35 43.50 11.77 43.28
  Q 15.69 41.67 17.49 39.07
  Q 17.77 38.66 18.17 38.38
  L 22.90 35.01
  L 26.26 39.57
  A 1.00 0.99 48.8 0 0 27.77 39.68
  L 31.17 36.17
  L 35.32 31.78
  L 39.96 25.86
  Z"
/>
<path fill="#d0d5d8" d="
  M 25.18 26.27
  L 31.17 36.17
  L 27.77 39.68
  A 1.00 0.99 48.8 0 1 26.26 39.57
  L 22.90 35.01
  Q 21.69 32.60 19.59 31.32
  L 21.95 27.60
  Q 22.22 27.17 22.70 27.03
  L 25.18 26.27
  Z"
/>
<path fill="#d0d5d8" d="
  M 8.84 29.00
  L 8.92 31.05
  A 1.00 0.99 -74.5 0 0 9.36 31.84
  Q 10.16 32.36 11.62 32.20
  Q 8.79 35.01 7.25 35.00
  Q 5.26 34.99 2.31 35.44
  Q 2.49 33.51 4.26 31.09
  C 5.45 29.47 6.95 29.13 8.84 29.00
  Z"
/>
<path fill="#9ea4ac" d="
  M 19.59 31.32
  Q 21.69 32.60 22.90 35.01
  L 18.17 38.38
  Q 17.77 38.66 17.49 39.07
  Q 15.69 41.67 11.77 43.28
  L 2.31 35.44
  Q 5.26 34.99 7.25 35.00
  Q 8.79 35.01 11.62 32.20
  Q 11.64 32.12 11.95 31.90
  Q 16.12 32.46 19.59 31.32
  Z"
/>
</svg>
