<?xml version="1.0" encoding="UTF-8" standalone="no"?>
<!DOCTYPE svg PUBLIC "-//W3C//DTD SVG 1.1//EN" "http://www.w3.org/Graphics/SVG/1.1/DTD/svg11.dtd">
<svg xmlns="http://www.w3.org/2000/svg" version="1.1" viewBox="0.00 0.00 100.00 100.00">
<g stroke-width="2.00" fill="none" stroke-linecap="butt">
<path stroke="#0f6368" vector-effect="non-scaling-stroke" d="
  M 45.99 12.38
  L 46.00 18.51
  Q 46.00 19.03 46.51 19.04
  L 47.47 19.07
  Q 48.04 19.09 48.03 18.51
  Q 47.93 14.35 48.05 11.09
  Q 48.10 9.50 46.45 9.87
  Q 46.41 9.88 44.36 10.33
  Q 42.89 10.66 42.90 12.16
  L 42.94 18.13
  Q 42.94 19.00 43.81 19.05
  L 44.28 19.08
  Q 44.95 19.12 44.96 18.45
  L 45.04 12.43
  Q 45.04 12.15 45.32 12.11
  L 45.63 12.07
  Q 45.99 12.02 45.99 12.38"
/>
<path stroke="#0f6368" vector-effect="non-scaling-stroke" d="
  M 51.62 13.96
  Q 51.25 13.92 51.18 13.60
  Q 50.88 12.27 51.03 10.56
  Q 51.08 9.97 50.50 9.97
  L 49.52 9.96
  Q 49.00 9.96 49.00 10.48
  L 48.99 18.37
  A 0.66 0.66 0.0 0 0 49.62 19.03
  L 50.30 19.06
  A 0.64 0.64 0.0 0 0 50.97 18.45
  L 51.08 16.37
  Q 51.09 16.10 51.35 16.08
  L 51.73 16.05
  Q 51.93 16.03 51.94 16.23
  L 52.03 18.54
  Q 52.04 19.03 52.54 19.03
  L 56.30 19.02
  Q 57.00 19.01 57.02 18.32
  Q 57.10 15.19 56.92 12.27
  Q 56.86 11.35 56.22 10.62
  Q 56.03 10.39 55.77 10.26
  A 0.52 0.51 -76.3 0 0 55.02 10.72
  L 54.99 17.42
  Q 54.99 17.80 54.61 17.81
  L 54.27 17.82
  Q 54.04 17.82 54.04 17.60
  L 53.98 10.72
  Q 53.97 9.97 53.22 9.96
  L 52.79 9.95
  Q 52.02 9.93 52.01 10.71
  L 52.00 13.63
  A 0.34 0.34 0.0 0 1 51.62 13.96"
/>
<path stroke="#4e7881" vector-effect="non-scaling-stroke" d="
  M 59.46 46.63
  L 37.10 46.99
  A 1.21 1.21 0.0 0 0 35.95 47.91
  Q 35.77 48.64 36.48 48.87
  Q 36.81 48.97 37.20 48.93
  Q 38.40 48.81 39.40 49.24"
/>
<path stroke="#637e85" vector-effect="non-scaling-stroke" d="
  M 39.40 49.24
  C 37.32 50.38 35.26 49.55 33.53 50.54
  Q 32.13 51.34 32.06 53.08
  Q 31.90 57.49 32.00 62.01
  A 3.07 3.06 -0.7 0 0 35.07 65.00
  L 64.50 65.01
  Q 68.01 65.01 68.00 61.50
  L 68.00 53.41
  A 3.40 3.40 0.0 0 0 64.68 50.01
  L 40.60 49.42"
/>
<path stroke="#4e7881" vector-effect="non-scaling-stroke" d="
  M 40.60 49.42
  Q 51.94 48.50 63.01 49.08
  Q 63.59 49.11 63.93 48.62
  Q 64.36 47.99 63.91 47.36
  A 0.84 0.81 71.2 0 0 63.25 47.02
  L 61.80 47.03"
/>
<path stroke="#637e85" vector-effect="non-scaling-stroke" d="
  M 61.80 47.03
  Q 61.89 46.61 62.31 46.26
  A 1.18 1.18 0.0 0 1 63.21 45.99
  C 66.64 46.38 68.34 44.33 68.08 41.14
  Q 67.17 30.20 57.11 25.54
  Q 55.61 24.84 53.94 24.98
  Q 53.72 25.00 53.51 24.97
  Q 53.09 24.91 53.04 24.73
  Q 52.91 24.29 53.36 24.20
  L 54.57 23.96
  Q 55.02 23.87 55.02 23.42
  L 55.01 21.50
  A 0.51 0.50 -0.0 0 0 54.50 21.00
  L 45.50 21.00
  Q 45.00 21.00 44.99 21.50
  L 44.97 23.47
  Q 44.97 23.97 45.47 23.98
  L 50.73 24.07
  Q 50.94 24.08 50.93 24.29
  L 50.92 24.59
  Q 50.90 24.86 50.63 24.88
  C 48.12 25.08 45.16 24.53 42.88 25.58
  Q 32.53 30.36 31.93 41.55
  C 31.72 45.37 33.92 46.04 37.37 45.97
  Q 48.37 45.73 59.46 46.63"
/>
<path stroke="#94d7de" vector-effect="non-scaling-stroke" d="
  M 61.80 47.03
  Q 59.24 48.04 59.46 46.63"
/>
<path stroke="#94d7de" vector-effect="non-scaling-stroke" d="
  M 40.60 49.42
  Q 39.90 49.17 39.40 49.24"
/>
<path stroke="#637e85" vector-effect="non-scaling-stroke" d="
  M 40.97 68.08
  C 38.10 70.47 31.85 66.88 31.97 72.59
  Q 32.06 76.81 31.97 82.12
  C 31.91 85.77 34.50 88.08 38.05 88.05
  Q 49.81 87.94 61.52 88.07
  C 64.93 88.11 67.83 86.32 67.93 82.60
  Q 68.07 77.54 67.98 72.03
  A 3.04 3.04 0.0 0 0 64.99 69.04
  Q 57.72 68.93 50.52 68.95
  Q 49.72 68.95 49.40 68.09"
/>
<path stroke="#4e7881" vector-effect="non-scaling-stroke" d="
  M 49.40 68.09
  L 63.32 68.00
  A 0.74 0.73 89.6 0 0 64.05 67.25
  L 64.05 67.00
  A 1.00 1.00 0.0 0 0 63.05 66.01
  L 36.62 66.01
  Q 35.75 66.01 35.88 66.88
  L 35.95 67.30
  Q 36.05 67.93 36.69 67.95
  L 40.97 68.08"
/>
<path stroke="#94d7de" vector-effect="non-scaling-stroke" d="
  M 49.40 68.09
  L 47.63 68.12"
/>
<path stroke="#4e7881" vector-effect="non-scaling-stroke" d="
  M 47.63 68.12
  Q 45.30 67.77 43.15 68.17"
/>
<path stroke="#94d7de" vector-effect="non-scaling-stroke" d="
  M 43.15 68.17
  L 40.97 68.08"
/>
<path stroke="#637e85" vector-effect="non-scaling-stroke" d="
  M 43.15 68.17
  Q 45.88 69.96 47.63 68.12"
/>
</g>
<path fill="#1d1f28" d="
  M 66.39 66.70
  Q 65.80 67.14 66.50 67.37
  Q 69.77 68.46 69.91 71.78
  Q 70.12 76.94 69.95 82.49
  C 69.80 87.36 66.19 90.08 61.51 90.04
  Q 49.44 89.95 37.99 90.00
  C 32.10 90.03 29.76 85.73 29.93 80.18
  Q 30.06 76.00 30.08 71.94
  Q 30.10 68.50 33.28 67.50
  Q 34.67 67.07 33.31 66.55
  Q 30.04 65.31 30.02 61.66
  Q 30.00 57.44 30.01 53.70
  Q 30.03 49.96 33.35 48.51
  Q 34.61 47.95 33.33 47.45
  C 29.55 45.98 29.64 41.69 30.34 38.13
  Q 32.32 28.06 42.43 23.61
  Q 42.81 23.44 42.91 23.03
  Q 43.10 22.26 43.01 21.44
  Q 42.97 21.01 42.55 20.90
  C 41.57 20.66 40.99 19.81 40.99 18.82
  C 41.01 14.84 39.67 7.86 46.07 7.96
  Q 50.26 8.03 54.34 8.02
  C 60.42 8.01 58.96 15.63 58.97 19.25
  A 1.35 1.34 79.0 0 1 58.12 20.52
  Q 56.48 21.18 57.03 22.98
  Q 57.16 23.39 57.56 23.57
  Q 69.66 29.06 70.01 41.78
  Q 70.12 46.08 66.37 47.62
  A 0.41 0.41 0.0 0 0 66.37 48.38
  Q 69.80 49.75 69.94 53.29
  Q 70.10 57.41 69.93 62.07
  C 69.86 63.89 68.90 65.84 67.12 66.34
  Q 66.72 66.46 66.39 66.70
  Z
  M 45.99 12.38
  L 46.00 18.51
  Q 46.00 19.03 46.51 19.04
  L 47.47 19.07
  Q 48.04 19.09 48.03 18.51
  Q 47.93 14.35 48.05 11.09
  Q 48.10 9.50 46.45 9.87
  Q 46.41 9.88 44.36 10.33
  Q 42.89 10.66 42.90 12.16
  L 42.94 18.13
  Q 42.94 19.00 43.81 19.05
  L 44.28 19.08
  Q 44.95 19.12 44.96 18.45
  L 45.04 12.43
  Q 45.04 12.15 45.32 12.11
  L 45.63 12.07
  Q 45.99 12.02 45.99 12.38
  Z
  M 51.62 13.96
  Q 51.25 13.92 51.18 13.60
  Q 50.88 12.27 51.03 10.56
  Q 51.08 9.97 50.50 9.97
  L 49.52 9.96
  Q 49.00 9.96 49.00 10.48
  L 48.99 18.37
  A 0.66 0.66 0.0 0 0 49.62 19.03
  L 50.30 19.06
  A 0.64 0.64 0.0 0 0 50.97 18.45
  L 51.08 16.37
  Q 51.09 16.10 51.35 16.08
  L 51.73 16.05
  Q 51.93 16.03 51.94 16.23
  L 52.03 18.54
  Q 52.04 19.03 52.54 19.03
  L 56.30 19.02
  Q 57.00 19.01 57.02 18.32
  Q 57.10 15.19 56.92 12.27
  Q 56.86 11.35 56.22 10.62
  Q 56.03 10.39 55.77 10.26
  A 0.52 0.51 -76.3 0 0 55.02 10.72
  L 54.99 17.42
  Q 54.99 17.80 54.61 17.81
  L 54.27 17.82
  Q 54.04 17.82 54.04 17.60
  L 53.98 10.72
  Q 53.97 9.97 53.22 9.96
  L 52.79 9.95
  Q 52.02 9.93 52.01 10.71
  L 52.00 13.63
  A 0.34 0.34 0.0 0 1 51.62 13.96
  Z
  M 59.46 46.63
  L 37.10 46.99
  A 1.21 1.21 0.0 0 0 35.95 47.91
  Q 35.77 48.64 36.48 48.87
  Q 36.81 48.97 37.20 48.93
  Q 38.40 48.81 39.40 49.24
  C 37.32 50.38 35.26 49.55 33.53 50.54
  Q 32.13 51.34 32.06 53.08
  Q 31.90 57.49 32.00 62.01
  A 3.07 3.06 -0.7 0 0 35.07 65.00
  L 64.50 65.01
  Q 68.01 65.01 68.00 61.50
  L 68.00 53.41
  A 3.40 3.40 0.0 0 0 64.68 50.01
  L 40.60 49.42
  Q 51.94 48.50 63.01 49.08
  Q 63.59 49.11 63.93 48.62
  Q 64.36 47.99 63.91 47.36
  A 0.84 0.81 71.2 0 0 63.25 47.02
  L 61.80 47.03
  Q 61.89 46.61 62.31 46.26
  A 1.18 1.18 0.0 0 1 63.21 45.99
  C 66.64 46.38 68.34 44.33 68.08 41.14
  Q 67.17 30.20 57.11 25.54
  Q 55.61 24.84 53.94 24.98
  Q 53.72 25.00 53.51 24.97
  Q 53.09 24.91 53.04 24.73
  Q 52.91 24.29 53.36 24.20
  L 54.57 23.96
  Q 55.02 23.87 55.02 23.42
  L 55.01 21.50
  A 0.51 0.50 -0.0 0 0 54.50 21.00
  L 45.50 21.00
  Q 45.00 21.00 44.99 21.50
  L 44.97 23.47
  Q 44.97 23.97 45.47 23.98
  L 50.73 24.07
  Q 50.94 24.08 50.93 24.29
  L 50.92 24.59
  Q 50.90 24.86 50.63 24.88
  C 48.12 25.08 45.16 24.53 42.88 25.58
  Q 32.53 30.36 31.93 41.55
  C 31.72 45.37 33.92 46.04 37.37 45.97
  Q 48.37 45.73 59.46 46.63
  Z
  M 40.97 68.08
  C 38.10 70.47 31.85 66.88 31.97 72.59
  Q 32.06 76.81 31.97 82.12
  C 31.91 85.77 34.50 88.08 38.05 88.05
  Q 49.81 87.94 61.52 88.07
  C 64.93 88.11 67.83 86.32 67.93 82.60
  Q 68.07 77.54 67.98 72.03
  A 3.04 3.04 0.0 0 0 64.99 69.04
  Q 57.72 68.93 50.52 68.95
  Q 49.72 68.95 49.40 68.09
  L 63.32 68.00
  A 0.74 0.73 89.6 0 0 64.05 67.25
  L 64.05 67.00
  A 1.00 1.00 0.0 0 0 63.05 66.01
  L 36.62 66.01
  Q 35.75 66.01 35.88 66.88
  L 35.95 67.30
  Q 36.05 67.93 36.69 67.95
  L 40.97 68.08
  Z"
/>
<path fill="#00a6a7" d="
  M 45.99 12.38
  Q 45.99 12.02 45.63 12.07
  L 45.32 12.11
  Q 45.04 12.15 45.04 12.43
  L 44.96 18.45
  Q 44.95 19.12 44.28 19.08
  L 43.81 19.05
  Q 42.94 19.00 42.94 18.13
  L 42.90 12.16
  Q 42.89 10.66 44.36 10.33
  Q 46.41 9.88 46.45 9.87
  Q 48.10 9.50 48.05 11.09
  Q 47.93 14.35 48.03 18.51
  Q 48.04 19.09 47.47 19.07
  L 46.51 19.04
  Q 46.00 19.03 46.00 18.51
  L 45.99 12.38
  Z"
/>
<path fill="#00a6a7" d="
  M 52.00 13.63
  L 52.01 10.71
  Q 52.02 9.93 52.79 9.95
  L 53.22 9.96
  Q 53.97 9.97 53.98 10.72
  L 54.04 17.60
  Q 54.04 17.82 54.27 17.82
  L 54.61 17.81
  Q 54.99 17.80 54.99 17.42
  L 55.02 10.72
  A 0.52 0.51 -76.3 0 1 55.77 10.26
  Q 56.03 10.39 56.22 10.62
  Q 56.86 11.35 56.92 12.27
  Q 57.10 15.19 57.02 18.32
  Q 57.00 19.01 56.30 19.02
  L 52.54 19.03
  Q 52.04 19.03 52.03 18.54
  L 51.94 16.23
  Q 51.93 16.03 51.73 16.05
  L 51.35 16.08
  Q 51.09 16.10 51.08 16.37
  L 50.97 18.45
  A 0.64 0.64 0.0 0 1 50.30 19.06
  L 49.62 19.03
  A 0.66 0.66 0.0 0 1 48.99 18.37
  L 49.00 10.48
  Q 49.00 9.96 49.52 9.96
  L 50.50 9.97
  Q 51.08 9.97 51.03 10.56
  Q 50.88 12.27 51.18 13.60
  Q 51.25 13.92 51.62 13.96
  A 0.34 0.34 0.0 0 0 52.00 13.63
  Z"
/>
<path fill="#a9dde2" d="
  M 61.80 47.03
  Q 59.24 48.04 59.46 46.63
  Q 48.37 45.73 37.37 45.97
  C 33.92 46.04 31.72 45.37 31.93 41.55
  Q 32.53 30.36 42.88 25.58
  C 45.16 24.53 48.12 25.08 50.63 24.88
  Q 50.90 24.86 50.92 24.59
  L 50.93 24.29
  Q 50.94 24.08 50.73 24.07
  L 45.47 23.98
  Q 44.97 23.97 44.97 23.47
  L 44.99 21.50
  Q 45.00 21.00 45.50 21.00
  L 54.50 21.00
  A 0.51 0.50 0.0 0 1 55.01 21.50
  L 55.02 23.42
  Q 55.02 23.87 54.57 23.96
  L 53.36 24.20
  Q 52.91 24.29 53.04 24.73
  Q 53.09 24.91 53.51 24.97
  Q 53.72 25.00 53.94 24.98
  Q 55.61 24.84 57.11 25.54
  Q 67.17 30.20 68.08 41.14
  C 68.34 44.33 66.64 46.38 63.21 45.99
  A 1.18 1.18 0.0 0 0 62.31 46.26
  Q 61.89 46.61 61.80 47.03
  Z"
/>
<path fill="#7ed1d9" d="
  M 59.46 46.63
  Q 59.24 48.04 61.80 47.03
  L 63.25 47.02
  A 0.84 0.81 71.2 0 1 63.91 47.36
  Q 64.36 47.99 63.93 48.62
  Q 63.59 49.11 63.01 49.08
  Q 51.94 48.50 40.60 49.42
  Q 39.90 49.17 39.40 49.24
  Q 38.40 48.81 37.20 48.93
  Q 36.81 48.97 36.48 48.87
  Q 35.77 48.64 35.95 47.91
  A 1.21 1.21 0.0 0 1 37.10 46.99
  L 59.46 46.63
  Z"
/>
<path fill="#a9dde2" d="
  M 39.40 49.24
  Q 39.90 49.17 40.60 49.42
  L 64.68 50.01
  A 3.40 3.40 0.0 0 1 68.00 53.41
  L 68.00 61.50
  Q 68.01 65.01 64.50 65.01
  L 35.07 65.00
  A 3.07 3.06 -0.7 0 1 32.00 62.01
  Q 31.90 57.49 32.06 53.08
  Q 32.13 51.34 33.53 50.54
  C 35.26 49.55 37.32 50.38 39.40 49.24
  Z"
/>
<path fill="#7ed1d9" d="
  M 49.40 68.09
  L 47.63 68.12
  Q 45.30 67.77 43.15 68.17
  L 40.97 68.08
  L 36.69 67.95
  Q 36.05 67.93 35.95 67.30
  L 35.88 66.88
  Q 35.75 66.01 36.62 66.01
  L 63.05 66.01
  A 1.00 1.00 0.0 0 1 64.05 67.00
  L 64.05 67.25
  A 0.74 0.73 89.6 0 1 63.32 68.00
  L 49.40 68.09
  Z"
/>
<path fill="#a9dde2" d="
  M 40.97 68.08
  L 43.15 68.17
  Q 45.88 69.96 47.63 68.12
  L 49.40 68.09
  Q 49.72 68.95 50.52 68.95
  Q 57.72 68.93 64.99 69.04
  A 3.04 3.04 0.0 0 1 67.98 72.03
  Q 68.07 77.54 67.93 82.60
  C 67.83 86.32 64.93 88.11 61.52 88.07
  Q 49.81 87.94 38.05 88.05
  C 34.50 88.08 31.91 85.77 31.97 82.12
  Q 32.06 76.81 31.97 72.59
  C 31.85 66.88 38.10 70.47 40.97 68.08
  Z"
/>
<path fill="#1d1f28" d="
  M 47.63 68.12
  Q 45.88 69.96 43.15 68.17
  Q 45.30 67.77 47.63 68.12
  Z"
/>
</svg>
