<?xml version="1.0" encoding="UTF-8" standalone="no"?>
<!DOCTYPE svg PUBLIC "-//W3C//DTD SVG 1.1//EN" "http://www.w3.org/Graphics/SVG/1.1/DTD/svg11.dtd">
<svg xmlns="http://www.w3.org/2000/svg" version="1.1" viewBox="0.00 0.00 100.00 100.00">
<g stroke-width="2.00" fill="none" stroke-linecap="butt">
<path stroke="#515363" vector-effect="non-scaling-stroke" d="
  M 46.84 19.03
  Q 40.12 21.16 36.69 27.47"
/>
<path stroke="#515363" vector-effect="non-scaling-stroke" d="
  M 63.15 27.50
  Q 59.94 21.08 53.13 19.05"
/>
<path stroke="#515363" vector-effect="non-scaling-stroke" d="
  M 63.97 31.26
  L 36.76 31.33
  Q 36.45 31.33 36.32 31.04
  Q 36.24 30.88 36.08 30.71"
/>
<path stroke="#337c6a" vector-effect="non-scaling-stroke" d="
  M 57.76 54.09
  Q 57.44 55.08 56.92 54.17
  L 52.80 47.03
  A 3.45 3.44 45.0 0 0 46.83 47.03
  L 41.13 56.92
  A 1.27 1.22 52.0 0 0 41.03 57.90
  Q 41.48 59.31 42.84 59.14
  A 1.23 1.23 0.0 0 0 43.77 58.53
  L 49.45 48.75
  A 0.42 0.42 0.0 0 1 50.17 48.75
  L 53.96 55.27
  Q 54.45 56.11 53.52 55.83
  L 51.71 55.29
  A 0.54 0.37 -28.9 0 0 51.51 55.27
  Q 49.74 55.42 49.69 56.28
  Q 49.59 57.86 51.10 58.35
  L 57.37 60.36
  A 1.54 1.53 17.9 0 0 59.31 59.37
  L 61.44 52.72
  A 1.43 1.40 42.8 0 0 61.39 51.73
  Q 60.95 50.74 60.21 50.71
  Q 58.86 50.65 58.45 51.94
  L 57.76 54.09"
/>
<path stroke="#337c6a" vector-effect="non-scaling-stroke" d="
  M 35.99 66.35
  Q 34.18 69.62 32.06 73.10
  C 29.90 76.65 32.77 78.91 36.18 78.82
  Q 41.72 78.67 46.15 78.75
  Q 47.50 78.77 47.59 77.42
  L 47.61 77.07
  A 1.41 1.41 0.0 0 0 46.19 75.58
  L 34.95 75.62
  A 0.38 0.37 -76.0 0 1 34.62 75.06
  L 38.39 68.38
  Q 38.87 67.54 39.08 68.48
  L 39.54 70.60
  Q 39.82 71.88 41.10 71.61
  L 41.44 71.54
  Q 42.87 71.24 42.56 69.81
  L 41.08 62.97
  A 1.56 1.56 0.0 0 0 39.23 61.78
  L 32.22 63.31
  A 0.95 0.94 11.0 0 0 31.65 63.69
  Q 31.00 64.61 31.36 65.27
  Q 32.09 66.57 33.54 66.23
  L 35.54 65.76
  Q 36.43 65.55 35.99 66.35"
/>
<path stroke="#337c6a" vector-effect="non-scaling-stroke" d="
  M 57.33 74.67
  L 58.59 73.54
  Q 59.66 72.58 58.88 71.37
  Q 58.56 70.87 57.87 70.67
  A 1.11 1.10 -57.5 0 0 56.85 70.90
  L 51.35 75.88
  A 1.36 1.36 0.0 0 0 51.25 77.80
  L 55.98 83.02
  Q 56.60 83.70 57.50 83.53
  Q 57.91 83.45 58.16 83.18
  Q 59.24 82.03 58.20 80.85
  L 56.69 79.11
  Q 56.14 78.49 56.97 78.49
  L 65.22 78.49
  A 3.48 3.48 0.0 0 0 68.24 73.27
  L 62.87 63.92
  Q 62.11 62.61 60.70 63.15
  Q 60.49 63.23 60.32 63.39
  Q 59.45 64.22 60.05 65.26
  L 65.42 74.59
  Q 65.84 75.33 64.99 75.33
  L 57.56 75.30
  Q 56.62 75.29 57.33 74.67"
/>
</g>
<path fill="#434554" d="
  M 46.84 19.03
  Q 40.12 21.16 36.69 27.47
  Q 30.08 25.17 27.38 19.58
  C 25.45 15.58 25.54 11.04 22.89 7.07
  A 1.55 1.55 0.0 0 1 24.27 4.66
  Q 39.52 5.55 46.84 19.03
  Z"
/>
<path fill="#434554" d="
  M 63.15 27.50
  Q 59.94 21.08 53.13 19.05
  Q 60.48 5.51 75.72 4.66
  A 1.59 1.59 0.0 0 1 77.07 7.22
  Q 75.42 9.37 74.90 12.11
  C 73.50 19.38 70.60 25.06 63.15 27.50
  Z"
/>
<path fill="#5e6172" d="
  M 53.13 19.05
  Q 59.94 21.08 63.15 27.50
  L 63.97 31.26
  L 36.76 31.33
  Q 36.45 31.33 36.32 31.04
  Q 36.24 30.88 36.08 30.71
  Q 36.88 28.41 36.69 27.47
  Q 40.12 21.16 46.84 19.03
  L 53.13 19.05
  Z"
/>
<path fill="#434554" d="
  M 36.08 30.71
  Q 36.24 30.88 36.32 31.04
  Q 36.45 31.33 36.76 31.33
  L 63.97 31.26
  Q 66.84 31.23 68.18 31.57
  Q 78.20 34.16 80.81 44.06
  Q 80.94 44.55 81.40 44.75
  Q 92.63 49.65 92.09 61.91
  Q 92.07 62.41 92.47 62.72
  Q 98.93 67.64 100.00 75.88
  L 100.00 78.98
  Q 97.98 90.23 88.90 93.83
  Q 84.93 95.40 78.76 95.36
  Q 48.16 95.18 19.20 95.35
  C 9.09 95.41 1.84 89.36 0.00 79.11
  L 0.00 75.52
  Q 1.24 67.52 7.51 62.73
  Q 7.92 62.41 7.90 61.90
  Q 7.39 49.67 18.55 44.75
  Q 18.98 44.57 19.11 44.12
  Q 22.75 31.71 35.82 31.17
  Q 36.03 31.16 36.11 30.97
  Q 36.18 30.82 36.08 30.71
  Z
  M 57.76 54.09
  Q 57.44 55.08 56.92 54.17
  L 52.80 47.03
  A 3.45 3.44 45.0 0 0 46.83 47.03
  L 41.13 56.92
  A 1.27 1.22 52.0 0 0 41.03 57.90
  Q 41.48 59.31 42.84 59.14
  A 1.23 1.23 0.0 0 0 43.77 58.53
  L 49.45 48.75
  A 0.42 0.42 0.0 0 1 50.17 48.75
  L 53.96 55.27
  Q 54.45 56.11 53.52 55.83
  L 51.71 55.29
  A 0.54 0.37 -28.9 0 0 51.51 55.27
  Q 49.74 55.42 49.69 56.28
  Q 49.59 57.86 51.10 58.35
  L 57.37 60.36
  A 1.54 1.53 17.9 0 0 59.31 59.37
  L 61.44 52.72
  A 1.43 1.40 42.8 0 0 61.39 51.73
  Q 60.95 50.74 60.21 50.71
  Q 58.86 50.65 58.45 51.94
  L 57.76 54.09
  Z
  M 35.99 66.35
  Q 34.18 69.62 32.06 73.10
  C 29.90 76.65 32.77 78.91 36.18 78.82
  Q 41.72 78.67 46.15 78.75
  Q 47.50 78.77 47.59 77.42
  L 47.61 77.07
  A 1.41 1.41 0.0 0 0 46.19 75.58
  L 34.95 75.62
  A 0.38 0.37 -76.0 0 1 34.62 75.06
  L 38.39 68.38
  Q 38.87 67.54 39.08 68.48
  L 39.54 70.60
  Q 39.82 71.88 41.10 71.61
  L 41.44 71.54
  Q 42.87 71.24 42.56 69.81
  L 41.08 62.97
  A 1.56 1.56 0.0 0 0 39.23 61.78
  L 32.22 63.31
  A 0.95 0.94 11.0 0 0 31.65 63.69
  Q 31.00 64.61 31.36 65.27
  Q 32.09 66.57 33.54 66.23
  L 35.54 65.76
  Q 36.43 65.55 35.99 66.35
  Z
  M 57.33 74.67
  L 58.59 73.54
  Q 59.66 72.58 58.88 71.37
  Q 58.56 70.87 57.87 70.67
  A 1.11 1.10 -57.5 0 0 56.85 70.90
  L 51.35 75.88
  A 1.36 1.36 0.0 0 0 51.25 77.80
  L 55.98 83.02
  Q 56.60 83.70 57.50 83.53
  Q 57.91 83.45 58.16 83.18
  Q 59.24 82.03 58.20 80.85
  L 56.69 79.11
  Q 56.14 78.49 56.97 78.49
  L 65.22 78.49
  A 3.48 3.48 0.0 0 0 68.24 73.27
  L 62.87 63.92
  Q 62.11 62.61 60.70 63.15
  Q 60.49 63.23 60.32 63.39
  Q 59.45 64.22 60.05 65.26
  L 65.42 74.59
  Q 65.84 75.33 64.99 75.33
  L 57.56 75.30
  Q 56.62 75.29 57.33 74.67
  Z"
/>
<path fill="#22b37f" d="
  M 57.76 54.09
  L 58.45 51.94
  Q 58.86 50.65 60.21 50.71
  Q 60.95 50.74 61.39 51.73
  A 1.43 1.40 42.8 0 1 61.44 52.72
  L 59.31 59.37
  A 1.54 1.53 17.9 0 1 57.37 60.36
  L 51.10 58.35
  Q 49.59 57.86 49.69 56.28
  Q 49.74 55.42 51.51 55.27
  A 0.54 0.37 -28.9 0 1 51.71 55.29
  L 53.52 55.83
  Q 54.45 56.11 53.96 55.27
  L 50.17 48.75
  A 0.42 0.42 0.0 0 0 49.45 48.75
  L 43.77 58.53
  A 1.23 1.23 0.0 0 1 42.84 59.14
  Q 41.48 59.31 41.03 57.90
  A 1.27 1.22 52.0 0 1 41.13 56.92
  L 46.83 47.03
  A 3.45 3.44 45.0 0 1 52.80 47.03
  L 56.92 54.17
  Q 57.44 55.08 57.76 54.09
  Z"
/>
<path fill="#22b37f" d="
  M 35.54 65.76
  L 33.54 66.23
  Q 32.09 66.57 31.36 65.27
  Q 31.00 64.61 31.65 63.69
  A 0.95 0.94 11.0 0 1 32.22 63.31
  L 39.23 61.78
  A 1.56 1.56 0.0 0 1 41.08 62.97
  L 42.56 69.81
  Q 42.87 71.24 41.44 71.54
  L 41.10 71.61
  Q 39.82 71.88 39.54 70.60
  L 39.08 68.48
  Q 38.87 67.54 38.39 68.38
  L 34.62 75.06
  A 0.38 0.37 -76.0 0 0 34.95 75.62
  L 46.19 75.58
  A 1.41 1.41 0.0 0 1 47.61 77.07
  L 47.59 77.42
  Q 47.50 78.77 46.15 78.75
  Q 41.72 78.67 36.18 78.82
  C 32.77 78.91 29.90 76.65 32.06 73.10
  Q 34.18 69.62 35.99 66.35
  Q 36.43 65.55 35.54 65.76
  Z"
/>
<path fill="#22b37f" d="
  M 57.56 75.30
  L 64.99 75.33
  Q 65.84 75.33 65.42 74.59
  L 60.05 65.26
  Q 59.45 64.22 60.32 63.39
  Q 60.49 63.23 60.70 63.15
  Q 62.11 62.61 62.87 63.92
  L 68.24 73.27
  A 3.48 3.48 0.0 0 1 65.22 78.49
  L 56.97 78.49
  Q 56.14 78.49 56.69 79.11
  L 58.20 80.85
  Q 59.24 82.03 58.16 83.18
  Q 57.91 83.45 57.50 83.53
  Q 56.60 83.70 55.98 83.02
  L 51.25 77.80
  A 1.36 1.36 0.0 0 1 51.35 75.88
  L 56.85 70.90
  A 1.11 1.10 -57.5 0 1 57.87 70.67
  Q 58.56 70.87 58.88 71.37
  Q 59.66 72.58 58.59 73.54
  L 57.33 74.67
  Q 56.62 75.29 57.56 75.30
  Z"
/>
</svg>
