<?xml version="1.0" standalone="no"?>
<!DOCTYPE svg PUBLIC "-//W3C//DTD SVG 20010904//EN" "http://www.w3.org/TR/2001/REC-SVG-20010904/DTD/svg10.dtd">
<!-- Created using Krita: https://krita.org -->
<svg xmlns="http://www.w3.org/2000/svg" 
    xmlns:xlink="http://www.w3.org/1999/xlink"
    xmlns:krita="http://krita.org/namespaces/svg/krita"
    xmlns:sodipodi="http://sodipodi.sourceforge.net/DTD/sodipodi-0.dtd"
    width="180pt"
    height="360pt"
    viewBox="0 0 180 360">
<defs/>
<circle id="shape0" transform="translate(20.16, 34.56)" r="49.68" cx="49.68" cy="49.68" fill="none" stroke="#f2c372" stroke-width="14.4" stroke-linecap="square" stroke-linejoin="bevel"/><path id="shape1" transform="translate(12.2399970980648, 126.179990309609)" fill="none" stroke="#e66551" stroke-width="14.4" stroke-linecap="square" stroke-linejoin="bevel" d="M31.32 0L0 245.7L41.58 245.16L59.76 206.82L88.56 244.08L126.36 243.54L90.18 0" sodipodi:nodetypes="ccccccc"/><path id="shape2" transform="translate(72, 147.779988236798)" fill="none" stroke="#e66551" stroke-width="70.7904" stroke-linecap="square" stroke-linejoin="bevel" d="M0 0L0 164.7" sodipodi:nodetypes="cc"/><path id="shape3" transform="translate(99.7199887031805, 199.079983313872)" fill="none" stroke="#e66551" stroke-width="19.6992" stroke-linecap="square" stroke-linejoin="bevel" d="M27 154.44L1.08 0L0 126.36L8.64 158.76" sodipodi:nodetypes="cccc"/><path id="shape4" transform="translate(99.1799887550007, 304.379973208919)" fill="none" stroke="#e66551" stroke-width="19.6992" stroke-linecap="square" stroke-linejoin="bevel" d="M21.06 51.84L7.02 0L0 46.98" sodipodi:nodetypes="ccc"/><path id="shape5" transform="translate(20.3399963207606, 235.259979841914)" fill="none" stroke="#e66551" stroke-width="19.6992" stroke-linecap="square" stroke-linejoin="bevel" d="M36.72 109.08L19.44 129.6L0 126.9L18.36 0" sodipodi:nodetypes="cccc"/><path id="shape6" transform="translate(33.8399950252538, 314.099972276154)" fill="none" stroke="#e66551" stroke-width="19.6992" stroke-linecap="square" stroke-linejoin="bevel" d="M6.48 0L0 40.5" sodipodi:nodetypes="cc"/><circle id="shape7" transform="translate(37.44, 47.52)" r="35.64" cx="35.64" cy="35.64" fill="none" stroke="#f2c372" stroke-width="14.4" stroke-linecap="square" stroke-linejoin="bevel"/><circle id="shape8" transform="translate(33.84, 44.64)" r="42.84" cx="42.84" cy="42.84" fill="none" stroke="#f2c372" stroke-width="14.4" stroke-linecap="square" stroke-linejoin="bevel"/><circle id="shape9" transform="translate(23.76, 56.16)" r="37.8" cx="37.8" cy="37.8" fill="none" stroke="#f2c372" stroke-width="14.4" stroke-linecap="square" stroke-linejoin="bevel"/><ellipse id="shape10" transform="translate(46.08, 73.44)" rx="22.32" ry="19.44" cx="22.32" cy="19.44" fill="none" stroke="#f2c372" stroke-width="14.4" stroke-linecap="square" stroke-linejoin="bevel"/><ellipse id="shape11" transform="translate(62.64, 81.36)" rx="4.68" ry="5.76" cx="4.68" cy="5.76" fill="none" stroke="#f2c372" stroke-width="14.4" stroke-linecap="square" stroke-linejoin="bevel"/><ellipse id="shape12" transform="translate(63.36, 82.8)" rx="8.28" ry="7.2" cx="8.28" cy="7.2" fill="none" stroke="#f2c372" stroke-width="14.4" stroke-linecap="square" stroke-linejoin="bevel"/><ellipse id="shape13" transform="translate(30.24, 69.12)" rx="28.08" ry="15.12" cx="28.08" cy="15.12" fill="none" stroke="#f2c372" stroke-width="14.4" stroke-linecap="square" stroke-linejoin="bevel"/><ellipse id="shape14" transform="translate(57.6, 64.08)" rx="7.2" ry="18.36" cx="7.2" cy="18.36" fill="none" stroke="#f2c372" stroke-width="14.4" stroke-linecap="square" stroke-linejoin="bevel"/><ellipse id="shape15" transform="translate(48.24, 75.6)" rx="16.92" ry="10.8" cx="16.92" cy="10.8" fill="none" stroke="#f2c372" stroke-width="14.4" stroke-linecap="square" stroke-linejoin="bevel"/><ellipse id="shape16" transform="translate(120.24, 192.24)" rx="12.96" ry="12.96" cx="12.96" cy="12.96" fill="none" stroke="#f2c372" stroke-width="14.4" stroke-linecap="square" stroke-linejoin="bevel"/><ellipse id="shape17" transform="translate(10.08, 183.6)" rx="10.8" ry="10.8" cx="10.8" cy="10.8" fill="none" stroke="#f2c372" stroke-width="14.4" stroke-linecap="square" stroke-linejoin="bevel"/><circle id="shape18" transform="translate(36, 70.56)" r="2.88" cx="2.88" cy="2.88" fill="none" stroke="#e66551" stroke-width="14.4" stroke-linecap="square" stroke-linejoin="bevel"/><ellipse id="shape19" transform="translate(97.2, 67.68)" rx="2.52" ry="2.52" cx="2.52" cy="2.52" fill="none" stroke="#e66551" stroke-width="14.4" stroke-linecap="square" stroke-linejoin="bevel"/><path id="shape20" transform="translate(44.0999940406686, 104.03999243424)" fill="none" stroke="#e66551" stroke-width="14.4" stroke-linecap="square" stroke-linejoin="bevel" d="M0 3.78L18.9 17.28L52.38 0" sodipodi:nodetypes="ccc"/>
</svg>
